<svg width="55" height="55" viewBox="0 0 55 55" fill="none" xmlns="http://www.w3.org/2000/svg">
<path d="M40.498 1.71875C32.5016 1.71875 25.9961 8.22422 25.9961 16.2207C25.9961 24.2172 32.5016 30.7227 40.498 30.7227C48.4945 30.7227 55 24.2172 55 16.2207C55 8.22422 48.4945 1.71875 40.498 1.71875ZM40.498 24.2773C38.5516 24.2773 36.8027 23.1183 36.0443 21.3254L39.0124 20.0696C39.2659 20.668 39.8492 21.0547 40.498 21.0547C41.3864 21.0547 42.1094 20.3317 42.1094 19.4434C42.1094 18.555 41.3864 17.832 40.498 17.832C37.8329 17.832 35.6641 15.6632 35.6641 12.998C35.6641 10.3329 37.8329 8.16406 40.498 8.16406C42.4445 8.16406 44.1934 9.32314 44.9518 11.116L41.9837 12.3718C41.7302 11.7734 41.1479 11.3867 40.498 11.3867C39.6097 11.3867 38.8867 12.1097 38.8867 12.998C38.8867 13.8864 39.6097 14.6094 40.498 14.6094C43.1632 14.6094 45.332 16.7782 45.332 19.4434C45.332 22.1085 43.1632 24.2773 40.498 24.2773Z" fill="#FFDA45"/>
<path d="M48.3441 32.1127C45.9776 33.2857 43.3136 33.9453 40.498 33.9453C31.2684 33.9453 23.6629 26.8533 22.8454 17.832H19.4434C17.18 17.832 15.0079 18.2907 12.9712 19.1974C11.318 18.3015 9.49287 17.832 7.64092 17.832H2.70596L5.46455 26.1089C5.18955 26.5891 4.95107 27.0478 4.7459 27.5H0V40.3906H4.73623C5.99521 43.2534 8.08779 45.723 10.7164 47.4246C12.1451 48.3495 12.998 49.9157 12.998 51.6141V53.2812H22.666V50.0586H32.334V53.2812H42.002V51.6699C42.002 48.9736 42.9559 46.3504 44.6886 44.2836C47.6395 40.7645 48.8329 36.3183 48.3441 32.1127ZM16.2207 30.7227H12.998V27.5H16.2207V30.7227Z" fill="#FFDA45"/>
</svg>
