<svg width="55" height="55" viewBox="0 0 55 55" fill="none" xmlns="http://www.w3.org/2000/svg">
<g clip-path="url(#clip0)">
<path d="M36.2981 38.5453L38.8132 34.4642L43.352 32.9162L43.8548 28.1492L47.2696 24.7874L45.6461 20.275L47.2696 15.7626L43.8549 12.4008L43.3521 7.63383L38.8133 6.08588L36.2982 2.0046L31.541 2.57898L27.4999 0L23.4588 2.5792L18.7018 2.00481L16.1867 6.08599L11.6479 7.63394L11.1451 12.4009L7.73022 15.7627L9.3538 20.2751L7.73022 24.7876L11.145 28.1493L11.6478 32.9163L16.1866 34.4643L18.7016 38.5454L23.4588 37.9712L27.4999 40.5503L31.541 37.9712L36.2981 38.5453ZM13.5964 20.2751C13.5964 12.6088 19.8336 6.37162 27.4999 6.37162C35.1663 6.37162 41.4034 12.6088 41.4034 20.2751C41.4034 27.9415 35.1663 34.1786 27.4999 34.1786C19.8336 34.1786 13.5964 27.9415 13.5964 20.2751Z" fill="#FFDA45"/>
<path d="M27.5001 9.59634C21.6118 9.59634 16.8213 14.3868 16.8213 20.2752C16.8213 26.1635 21.6118 30.954 27.5001 30.954C33.3884 30.954 38.1789 26.1635 38.1789 20.2752C38.1789 14.3868 33.3884 9.59634 27.5001 9.59634Z" fill="#FFDA45"/>
<path d="M22.6982 41.3111L17.0392 41.9943L14.0493 37.1423L13.0329 36.7958L8.64868 50.4992L16.5415 50.0651L22.7166 55.0001L26.3505 43.6421L22.6982 41.3111Z" fill="#FFDA45"/>
<path d="M40.9506 37.1425L37.9606 41.9943L32.3018 41.3111L28.6494 43.6421L32.2833 55.0001L38.4584 50.0651L46.3512 50.4992L41.967 36.7958L40.9506 37.1425Z" fill="#FFDA45"/>
</g>
<defs>
<clipPath id="clip0">
<rect width="55" height="55" fill="white"/>
</clipPath>
</defs>
</svg>
