<svg width="218" height="116" viewBox="0 0 218 116" fill="none" xmlns="http://www.w3.org/2000/svg">
<path d="M54.7879 0.799999V12H53.2199V8.736H50.1319C49.9399 8.736 49.7959 8.73067 49.6999 8.72L47.4599 12H45.7639L48.2439 8.448C47.4439 8.18133 46.8306 7.73867 46.4039 7.12C45.9773 6.49067 45.7639 5.728 45.7639 4.832C45.7639 3.56267 46.1693 2.576 46.9799 1.872C47.8013 1.15733 48.9053 0.799999 50.2919 0.799999H54.7879ZM47.3799 4.816C47.3799 5.648 47.6199 6.288 48.0999 6.736C48.5906 7.17333 49.3106 7.392 50.2599 7.392H53.2199V2.192H50.3559C49.3959 2.192 48.6599 2.416 48.1479 2.864C47.6359 3.312 47.3799 3.96267 47.3799 4.816ZM68.0999 7.6C69.1986 7.87733 69.7479 8.56533 69.7479 9.664C69.7479 10.4107 69.4653 10.9867 68.8999 11.392C68.3453 11.7973 67.5133 12 66.4039 12H62.3239V3.52H66.2599C67.2626 3.52 68.0466 3.712 68.6119 4.096C69.1773 4.46933 69.4599 5.00267 69.4599 5.696C69.4599 6.144 69.3373 6.53333 69.0919 6.864C68.8573 7.184 68.5266 7.42933 68.0999 7.6ZM63.8279 7.168H66.1319C66.7186 7.168 67.1613 7.06133 67.4599 6.848C67.7693 6.63467 67.9239 6.32533 67.9239 5.92C67.9239 5.10933 67.3266 4.704 66.1319 4.704H63.8279V7.168ZM66.2919 10.816C66.9319 10.816 67.4119 10.7147 67.7319 10.512C68.0519 10.3093 68.2119 9.99467 68.2119 9.568C68.2119 9.13067 68.0626 8.80533 67.7639 8.592C67.4759 8.37867 67.0173 8.272 66.3879 8.272H63.8279V10.816H66.2919ZM72.1521 3.52H73.6881V7.12H78.5201V3.52H80.0561V12H78.5201V8.448H73.6881V12H72.1521V3.52ZM83.0427 3.52H84.5787V9.696L89.7787 3.52H91.1707V12H89.6347V5.824L84.4507 12H83.0427V3.52ZM103.928 3.52V12H102.536V5.808L99.3681 11.04H98.6961L95.5601 5.792V12H94.1521V3.52H95.7361L99.0641 9.248L102.488 3.52H103.928ZM109.942 3.44C111.115 3.44 112.011 3.728 112.63 4.304C113.259 4.88 113.574 5.73867 113.574 6.88V12H112.118V10.88C111.862 11.2747 111.494 11.5787 111.014 11.792C110.544 11.9947 109.984 12.096 109.334 12.096C108.384 12.096 107.622 11.8667 107.046 11.408C106.48 10.9493 106.198 10.3467 106.198 9.6C106.198 8.85333 106.47 8.256 107.014 7.808C107.558 7.34933 108.422 7.12 109.606 7.12H112.038V6.816C112.038 6.15467 111.846 5.648 111.462 5.296C111.078 4.944 110.512 4.768 109.766 4.768C109.264 4.768 108.774 4.85333 108.294 5.024C107.814 5.184 107.408 5.40267 107.078 5.68L106.438 4.528C106.875 4.176 107.398 3.90933 108.006 3.728C108.614 3.536 109.259 3.44 109.942 3.44ZM109.59 10.912C110.176 10.912 110.683 10.784 111.11 10.528C111.536 10.2613 111.846 9.888 112.038 9.408V8.224H109.67C108.368 8.224 107.718 8.66133 107.718 9.536C107.718 9.96267 107.883 10.2987 108.214 10.544C108.544 10.7893 109.003 10.912 109.59 10.912ZM122.66 4.864H119.556V12H118.02V4.864H114.916V3.52H122.66V4.864ZM131.519 7.808C131.519 7.92533 131.509 8.08 131.487 8.272H124.607C124.703 9.01867 125.029 9.62133 125.583 10.08C126.149 10.528 126.847 10.752 127.679 10.752C128.693 10.752 129.509 10.4107 130.127 9.728L130.975 10.72C130.591 11.168 130.111 11.5093 129.535 11.744C128.97 11.9787 128.335 12.096 127.631 12.096C126.735 12.096 125.941 11.9147 125.247 11.552C124.554 11.1787 124.015 10.6613 123.631 10C123.258 9.33867 123.071 8.592 123.071 7.76C123.071 6.93867 123.253 6.19733 123.615 5.536C123.989 4.87467 124.495 4.36267 125.135 4C125.786 3.62667 126.517 3.44 127.327 3.44C128.138 3.44 128.858 3.62667 129.487 4C130.127 4.36267 130.623 4.87467 130.975 5.536C131.338 6.19733 131.519 6.95467 131.519 7.808ZM127.327 4.736C126.591 4.736 125.973 4.96 125.471 5.408C124.981 5.856 124.693 6.44267 124.607 7.168H130.047C129.962 6.45333 129.669 5.872 129.167 5.424C128.677 4.96533 128.063 4.736 127.327 4.736ZM141.041 3.52V12H139.505V4.864H135.857L135.761 6.752C135.708 7.89333 135.607 8.848 135.457 9.616C135.308 10.3733 135.063 10.9813 134.721 11.44C134.38 11.8987 133.905 12.128 133.297 12.128C133.02 12.128 132.705 12.08 132.353 11.984L132.449 10.688C132.588 10.72 132.716 10.736 132.833 10.736C133.26 10.736 133.58 10.5493 133.793 10.176C134.007 9.80267 134.145 9.36 134.209 8.848C134.273 8.336 134.332 7.60533 134.385 6.656L134.529 3.52H141.041ZM147.931 6.4C149.009 6.41067 149.83 6.656 150.395 7.136C150.961 7.616 151.243 8.29333 151.243 9.168C151.243 10.0853 150.934 10.7947 150.315 11.296C149.707 11.7867 148.833 12.0267 147.691 12.016L144.011 12V3.52H145.547V6.384L147.931 6.4ZM147.563 10.848C148.257 10.8587 148.779 10.72 149.131 10.432C149.494 10.144 149.675 9.71733 149.675 9.152C149.675 8.59733 149.499 8.192 149.147 7.936C148.806 7.68 148.278 7.54667 147.563 7.536L145.547 7.504V10.832L147.563 10.848ZM153.215 3.52H154.751V7.12H159.583V3.52H161.119V12H159.583V8.448H154.751V12H153.215V3.52ZM167.737 12.096C166.895 12.096 166.137 11.9093 165.465 11.536C164.793 11.1627 164.265 10.6507 163.881 10C163.508 9.33867 163.321 8.592 163.321 7.76C163.321 6.928 163.508 6.18667 163.881 5.536C164.265 4.87467 164.793 4.36267 165.465 4C166.137 3.62667 166.895 3.44 167.737 3.44C168.58 3.44 169.332 3.62667 169.993 4C170.665 4.36267 171.188 4.87467 171.561 5.536C171.945 6.18667 172.137 6.928 172.137 7.76C172.137 8.592 171.945 9.33867 171.561 10C171.188 10.6507 170.665 11.1627 169.993 11.536C169.332 11.9093 168.58 12.096 167.737 12.096ZM167.737 10.752C168.281 10.752 168.767 10.6293 169.193 10.384C169.631 10.128 169.972 9.776 170.217 9.328C170.463 8.86933 170.585 8.34667 170.585 7.76C170.585 7.17333 170.463 6.656 170.217 6.208C169.972 5.74933 169.631 5.39733 169.193 5.152C168.767 4.90667 168.281 4.784 167.737 4.784C167.193 4.784 166.703 4.90667 166.265 5.152C165.839 5.39733 165.497 5.74933 165.241 6.208C164.996 6.656 164.873 7.17333 164.873 7.76C164.873 8.34667 164.996 8.86933 165.241 9.328C165.497 9.776 165.839 10.128 166.265 10.384C166.703 10.6293 167.193 10.752 167.737 10.752ZM24.609 23.44C25.4303 23.44 26.1663 23.6213 26.817 23.984C27.4677 24.3467 27.9743 24.8533 28.337 25.504C28.7103 26.1547 28.897 26.9067 28.897 27.76C28.897 28.6133 28.7103 29.3707 28.337 30.032C27.9743 30.6827 27.4677 31.1893 26.817 31.552C26.1663 31.9147 25.4303 32.096 24.609 32.096C24.001 32.096 23.441 31.9787 22.929 31.744C22.4277 31.5093 22.001 31.168 21.649 30.72V35.104H20.113V23.52H21.585V24.864C21.9263 24.3947 22.3583 24.0427 22.881 23.808C23.4037 23.5627 23.9797 23.44 24.609 23.44ZM24.481 30.752C25.025 30.752 25.5103 30.6293 25.937 30.384C26.3743 30.128 26.7157 29.776 26.961 29.328C27.217 28.8693 27.345 28.3467 27.345 27.76C27.345 27.1733 27.217 26.656 26.961 26.208C26.7157 25.7493 26.3743 25.3973 25.937 25.152C25.5103 24.9067 25.025 24.784 24.481 24.784C23.9477 24.784 23.4623 24.912 23.025 25.168C22.5983 25.4133 22.257 25.76 22.001 26.208C21.7557 26.656 21.633 27.1733 21.633 27.76C21.633 28.3467 21.7557 28.8693 22.001 29.328C22.2463 29.776 22.5877 30.128 23.025 30.384C23.4623 30.6293 23.9477 30.752 24.481 30.752ZM34.0745 23.44C35.2478 23.44 36.1438 23.728 36.7625 24.304C37.3918 24.88 37.7065 25.7387 37.7065 26.88V32H36.2505V30.88C35.9945 31.2747 35.6265 31.5787 35.1465 31.792C34.6772 31.9947 34.1172 32.096 33.4665 32.096C32.5172 32.096 31.7545 31.8667 31.1785 31.408C30.6132 30.9493 30.3305 30.3467 30.3305 29.6C30.3305 28.8533 30.6025 28.256 31.1465 27.808C31.6905 27.3493 32.5545 27.12 33.7385 27.12H36.1705V26.816C36.1705 26.1547 35.9785 25.648 35.5945 25.296C35.2105 24.944 34.6452 24.768 33.8985 24.768C33.3972 24.768 32.9065 24.8533 32.4265 25.024C31.9465 25.184 31.5412 25.4027 31.2105 25.68L30.5705 24.528C31.0078 24.176 31.5305 23.9093 32.1385 23.728C32.7465 23.536 33.3918 23.44 34.0745 23.44ZM33.7225 30.912C34.3092 30.912 34.8158 30.784 35.2425 30.528C35.6692 30.2613 35.9785 29.888 36.1705 29.408V28.224H33.8025C32.5012 28.224 31.8505 28.6613 31.8505 29.536C31.8505 29.9627 32.0158 30.2987 32.3465 30.544C32.6772 30.7893 33.1358 30.912 33.7225 30.912ZM44.7924 23.808C45.5817 23.808 46.2857 23.984 46.9044 24.336C47.523 24.688 48.003 25.1787 48.3444 25.808C48.6964 26.4267 48.8724 27.136 48.8724 27.936C48.8724 28.7573 48.6857 29.488 48.3124 30.128C47.9497 30.7573 47.4324 31.248 46.7604 31.6C46.099 31.952 45.3417 32.128 44.4884 32.128C43.0484 32.128 41.9337 31.6373 41.1444 30.656C40.3657 29.664 39.9764 28.272 39.9764 26.48C39.9764 24.7413 40.3337 23.3813 41.0484 22.4C41.763 21.408 42.8564 20.752 44.3284 20.432L48.2004 19.568L48.4244 20.976L44.8564 21.744C43.747 21.9893 42.9204 22.4053 42.3764 22.992C41.8324 23.5787 41.523 24.4213 41.4484 25.52C41.811 24.976 42.2804 24.5547 42.8564 24.256C43.4324 23.9573 44.0777 23.808 44.7924 23.808ZM44.5204 30.848C45.0644 30.848 45.5444 30.7253 45.9604 30.48C46.387 30.2347 46.7177 29.8987 46.9524 29.472C47.187 29.0347 47.3044 28.5387 47.3044 27.984C47.3044 27.1413 47.0484 26.464 46.5364 25.952C46.0244 25.44 45.3524 25.184 44.5204 25.184C43.6884 25.184 43.011 25.44 42.4884 25.952C41.9764 26.464 41.7204 27.1413 41.7204 27.984C41.7204 28.5387 41.8377 29.0347 42.0724 29.472C42.3177 29.8987 42.6537 30.2347 43.0804 30.48C43.507 30.7253 43.987 30.848 44.5204 30.848ZM54.6981 32.096C53.8555 32.096 53.0981 31.9093 52.4261 31.536C51.7541 31.1627 51.2261 30.6507 50.8421 30C50.4688 29.3387 50.2821 28.592 50.2821 27.76C50.2821 26.928 50.4688 26.1867 50.8421 25.536C51.2261 24.8747 51.7541 24.3627 52.4261 24C53.0981 23.6267 53.8555 23.44 54.6981 23.44C55.5408 23.44 56.2928 23.6267 56.9541 24C57.6261 24.3627 58.1488 24.8747 58.5221 25.536C58.9061 26.1867 59.0981 26.928 59.0981 27.76C59.0981 28.592 58.9061 29.3387 58.5221 30C58.1488 30.6507 57.6261 31.1627 56.9541 31.536C56.2928 31.9093 55.5408 32.096 54.6981 32.096ZM54.6981 30.752C55.2421 30.752 55.7275 30.6293 56.1541 30.384C56.5915 30.128 56.9328 29.776 57.1781 29.328C57.4235 28.8693 57.5461 28.3467 57.5461 27.76C57.5461 27.1733 57.4235 26.656 57.1781 26.208C56.9328 25.7493 56.5915 25.3973 56.1541 25.152C55.7275 24.9067 55.2421 24.784 54.6981 24.784C54.1541 24.784 53.6635 24.9067 53.2261 25.152C52.7995 25.3973 52.4581 25.7493 52.2021 26.208C51.9568 26.656 51.8341 27.1733 51.8341 27.76C51.8341 28.3467 51.9568 28.8693 52.2021 29.328C52.4581 29.776 52.7995 30.128 53.2261 30.384C53.6635 30.6293 54.1541 30.752 54.6981 30.752ZM67.3236 24.864H64.2196V32H62.6836V24.864H59.5796V23.52H67.3236V24.864ZM71.9183 23.44C73.0916 23.44 73.9876 23.728 74.6063 24.304C75.2356 24.88 75.5503 25.7387 75.5503 26.88V32H74.0943V30.88C73.8383 31.2747 73.4703 31.5787 72.9903 31.792C72.5209 31.9947 71.9609 32.096 71.3103 32.096C70.3609 32.096 69.5983 31.8667 69.0223 31.408C68.4569 30.9493 68.1743 30.3467 68.1743 29.6C68.1743 28.8533 68.4463 28.256 68.9903 27.808C69.5343 27.3493 70.3983 27.12 71.5823 27.12H74.0143V26.816C74.0143 26.1547 73.8223 25.648 73.4383 25.296C73.0543 24.944 72.4889 24.768 71.7423 24.768C71.2409 24.768 70.7503 24.8533 70.2703 25.024C69.7903 25.184 69.3849 25.4027 69.0543 25.68L68.4143 24.528C68.8516 24.176 69.3743 23.9093 69.9823 23.728C70.5903 23.536 71.2356 23.44 71.9183 23.44ZM71.5663 30.912C72.1529 30.912 72.6596 30.784 73.0863 30.528C73.5129 30.2613 73.8223 29.888 74.0143 29.408V28.224H71.6463C70.3449 28.224 69.6943 28.6613 69.6943 29.536C69.6943 29.9627 69.8596 30.2987 70.1903 30.544C70.5209 30.7893 70.9796 30.912 71.5663 30.912ZM85.8201 23.44C86.6415 23.44 87.3775 23.6267 88.0281 24C88.6788 24.3627 89.1908 24.8747 89.5641 25.536C89.9375 26.1867 90.1241 26.928 90.1241 27.76C90.1241 28.592 89.9375 29.3387 89.5641 30C89.1908 30.6507 88.6788 31.1627 88.0281 31.536C87.3775 31.9093 86.6415 32.096 85.8201 32.096C85.0735 32.096 84.3961 31.9413 83.7881 31.632C83.1801 31.3227 82.6788 30.8907 82.2841 30.336C81.9001 29.7707 81.6601 29.1307 81.5641 28.416H79.8521V32H78.3161V23.52H79.8521V26.992H81.5801C81.6868 26.288 81.9321 25.6693 82.3161 25.136C82.7108 24.592 83.2068 24.176 83.8041 23.888C84.4121 23.5893 85.0841 23.44 85.8201 23.44ZM85.8201 30.752C86.3428 30.752 86.8121 30.6293 87.2281 30.384C87.6548 30.1387 87.9908 29.792 88.2361 29.344C88.4815 28.8853 88.6041 28.3573 88.6041 27.76C88.6041 27.1733 88.4815 26.656 88.2361 26.208C87.9908 25.7493 87.6548 25.3973 87.2281 25.152C86.8121 24.9067 86.3428 24.784 85.8201 24.784C85.2975 24.784 84.8228 24.9067 84.3961 25.152C83.9695 25.3973 83.6335 25.7493 83.3881 26.208C83.1535 26.656 83.0361 27.1733 83.0361 27.76C83.0361 28.3573 83.1535 28.8853 83.3881 29.344C83.6335 29.792 83.9695 30.1387 84.3961 30.384C84.8228 30.6293 85.2975 30.752 85.8201 30.752ZM96.6286 23.52H98.1646V27.12H102.997V23.52H104.533V32H102.997V28.448H98.1646V32H96.6286V23.52ZM110.543 23.44C111.717 23.44 112.613 23.728 113.231 24.304C113.861 24.88 114.175 25.7387 114.175 26.88V32H112.719V30.88C112.463 31.2747 112.095 31.5787 111.615 31.792C111.146 31.9947 110.586 32.096 109.935 32.096C108.986 32.096 108.223 31.8667 107.647 31.408C107.082 30.9493 106.799 30.3467 106.799 29.6C106.799 28.8533 107.071 28.256 107.615 27.808C108.159 27.3493 109.023 27.12 110.207 27.12H112.639V26.816C112.639 26.1547 112.447 25.648 112.063 25.296C111.679 24.944 111.114 24.768 110.367 24.768C109.866 24.768 109.375 24.8533 108.895 25.024C108.415 25.184 108.01 25.4027 107.679 25.68L107.039 24.528C107.477 24.176 107.999 23.9093 108.607 23.728C109.215 23.536 109.861 23.44 110.543 23.44ZM110.191 30.912C110.778 30.912 111.285 30.784 111.711 30.528C112.138 30.2613 112.447 29.888 112.639 29.408V28.224H110.271C108.97 28.224 108.319 28.6613 108.319 29.536C108.319 29.9627 108.485 30.2987 108.815 30.544C109.146 30.7893 109.605 30.912 110.191 30.912ZM125.565 30.656V33.968H124.125V32H117.037V33.968H115.581V30.656H116.029C116.573 30.624 116.946 30.24 117.149 29.504C117.352 28.768 117.49 27.728 117.565 26.384L117.693 23.52H124.269V30.656H125.565ZM118.973 26.496C118.93 27.5627 118.84 28.448 118.701 29.152C118.573 29.8453 118.333 30.3467 117.981 30.656H122.733V24.864H119.053L118.973 26.496ZM135.159 28.416H133.399V32H131.863V23.52H133.399V27.104H135.191L137.943 23.52H139.591L136.375 27.6L139.815 32H138.007L135.159 28.416ZM144.293 23.44C145.467 23.44 146.363 23.728 146.981 24.304C147.611 24.88 147.925 25.7387 147.925 26.88V32H146.469V30.88C146.213 31.2747 145.845 31.5787 145.365 31.792C144.896 31.9947 144.336 32.096 143.685 32.096C142.736 32.096 141.973 31.8667 141.397 31.408C140.832 30.9493 140.549 30.3467 140.549 29.6C140.549 28.8533 140.821 28.256 141.365 27.808C141.909 27.3493 142.773 27.12 143.957 27.12H146.389V26.816C146.389 26.1547 146.197 25.648 145.813 25.296C145.429 24.944 144.864 24.768 144.117 24.768C143.616 24.768 143.125 24.8533 142.645 25.024C142.165 25.184 141.76 25.4027 141.429 25.68L140.789 24.528C141.227 24.176 141.749 23.9093 142.357 23.728C142.965 23.536 143.611 23.44 144.293 23.44ZM143.941 30.912C144.528 30.912 145.035 30.784 145.461 30.528C145.888 30.2613 146.197 29.888 146.389 29.408V28.224H144.021C142.72 28.224 142.069 28.6613 142.069 29.536C142.069 29.9627 142.235 30.2987 142.565 30.544C142.896 30.7893 143.355 30.912 143.941 30.912ZM158.403 28.416H156.755V32H155.219V28.416H153.571L151.235 32H149.411L152.323 27.616L149.635 23.52H151.267L153.555 27.104H155.219V23.52H156.755V27.104H158.419L160.707 23.52H162.355L159.667 27.632L162.579 32H160.755L158.403 28.416ZM172.893 30.656V33.968H171.453V32H164.365V33.968H162.909V30.656H163.357C163.901 30.624 164.275 30.24 164.477 29.504C164.68 28.768 164.819 27.728 164.893 26.384L165.021 23.52H171.597V30.656H172.893ZM166.301 26.496C166.259 27.5627 166.168 28.448 166.029 29.152C165.901 29.8453 165.661 30.3467 165.309 30.656H170.061V24.864H166.381L166.301 26.496ZM178.718 26.4C179.785 26.4107 180.601 26.656 181.166 27.136C181.732 27.616 182.014 28.2933 182.014 29.168C182.014 30.0853 181.705 30.7947 181.086 31.296C180.478 31.7867 179.604 32.0267 178.462 32.016L174.894 32V23.52H176.43V26.384L178.718 26.4ZM183.278 23.52H184.814V32H183.278V23.52ZM178.35 30.848C179.044 30.8587 179.566 30.72 179.918 30.432C180.281 30.144 180.462 29.7173 180.462 29.152C180.462 28.5973 180.286 28.192 179.934 27.936C179.582 27.68 179.054 27.5467 178.35 27.536L176.43 27.504V30.832L178.35 30.848ZM197.577 23.52V32H196.185V25.808L193.017 31.04H192.345L189.209 25.792V32H187.801V23.52H189.385L192.713 29.248L196.137 23.52H197.577ZM8.43775 43.52V52H6.90175V44.864H2.11775V52H0.58175V43.52H8.43775ZM15.9059 43.44C16.7272 43.44 17.4632 43.6213 18.1139 43.984C18.7645 44.3467 19.2712 44.8533 19.6339 45.504C20.0072 46.1547 20.1939 46.9067 20.1939 47.76C20.1939 48.6133 20.0072 49.3707 19.6339 50.032C19.2712 50.6827 18.7645 51.1893 18.1139 51.552C17.4632 51.9147 16.7272 52.096 15.9059 52.096C15.2979 52.096 14.7379 51.9787 14.2259 51.744C13.7245 51.5093 13.2979 51.168 12.9459 50.72V55.104H11.4099V43.52H12.8819V44.864C13.2232 44.3947 13.6552 44.0427 14.1779 43.808C14.7005 43.5627 15.2765 43.44 15.9059 43.44ZM15.7779 50.752C16.3219 50.752 16.8072 50.6293 17.2339 50.384C17.6712 50.128 18.0125 49.776 18.2579 49.328C18.5139 48.8693 18.6419 48.3467 18.6419 47.76C18.6419 47.1733 18.5139 46.656 18.2579 46.208C18.0125 45.7493 17.6712 45.3973 17.2339 45.152C16.8072 44.9067 16.3219 44.784 15.7779 44.784C15.2445 44.784 14.7592 44.912 14.3219 45.168C13.8952 45.4133 13.5539 45.76 13.2979 46.208C13.0525 46.656 12.9299 47.1733 12.9299 47.76C12.9299 48.3467 13.0525 48.8693 13.2979 49.328C13.5432 49.776 13.8845 50.128 14.3219 50.384C14.7592 50.6293 15.2445 50.752 15.7779 50.752ZM26.0575 52.096C25.2148 52.096 24.4575 51.9093 23.7855 51.536C23.1135 51.1627 22.5855 50.6507 22.2015 50C21.8282 49.3387 21.6415 48.592 21.6415 47.76C21.6415 46.928 21.8282 46.1867 22.2015 45.536C22.5855 44.8747 23.1135 44.3627 23.7855 44C24.4575 43.6267 25.2148 43.44 26.0575 43.44C26.9002 43.44 27.6522 43.6267 28.3135 44C28.9855 44.3627 29.5082 44.8747 29.8815 45.536C30.2655 46.1867 30.4575 46.928 30.4575 47.76C30.4575 48.592 30.2655 49.3387 29.8815 50C29.5082 50.6507 28.9855 51.1627 28.3135 51.536C27.6522 51.9093 26.9002 52.096 26.0575 52.096ZM26.0575 50.752C26.6015 50.752 27.0868 50.6293 27.5135 50.384C27.9508 50.128 28.2922 49.776 28.5375 49.328C28.7828 48.8693 28.9055 48.3467 28.9055 47.76C28.9055 47.1733 28.7828 46.656 28.5375 46.208C28.2922 45.7493 27.9508 45.3973 27.5135 45.152C27.0868 44.9067 26.6015 44.784 26.0575 44.784C25.5135 44.784 25.0228 44.9067 24.5855 45.152C24.1588 45.3973 23.8175 45.7493 23.5615 46.208C23.3162 46.656 23.1935 47.1733 23.1935 47.76C23.1935 48.3467 23.3162 48.8693 23.5615 49.328C23.8175 49.776 24.1588 50.128 24.5855 50.384C25.0228 50.6293 25.5135 50.752 26.0575 50.752ZM40.3395 47.808C40.3395 47.9253 40.3288 48.08 40.3075 48.272H33.4275C33.5235 49.0187 33.8488 49.6213 34.4035 50.08C34.9688 50.528 35.6675 50.752 36.4995 50.752C37.5128 50.752 38.3288 50.4107 38.9475 49.728L39.7955 50.72C39.4115 51.168 38.9315 51.5093 38.3555 51.744C37.7902 51.9787 37.1555 52.096 36.4515 52.096C35.5555 52.096 34.7608 51.9147 34.0675 51.552C33.3742 51.1787 32.8355 50.6613 32.4515 50C32.0782 49.3387 31.8915 48.592 31.8915 47.76C31.8915 46.9387 32.0728 46.1973 32.4355 45.536C32.8088 44.8747 33.3155 44.3627 33.9555 44C34.6062 43.6267 35.3368 43.44 36.1475 43.44C36.9582 43.44 37.6782 43.6267 38.3075 44C38.9475 44.3627 39.4435 44.8747 39.7955 45.536C40.1582 46.1973 40.3395 46.9547 40.3395 47.808ZM36.1475 44.736C35.4115 44.736 34.7928 44.96 34.2915 45.408C33.8008 45.856 33.5128 46.4427 33.4275 47.168H38.8675C38.7822 46.4533 38.4888 45.872 37.9875 45.424C37.4968 44.9653 36.8835 44.736 36.1475 44.736ZM46.0184 48.416H44.2584V52H42.7224V43.52H44.2584V47.104H46.0504L48.8024 43.52H50.4504L47.2344 47.6L50.6744 52H48.8664L46.0184 48.416ZM58.4643 44.864H55.3602V52H53.8243V44.864H50.7203V43.52H58.4643V44.864ZM63.2919 52.096C62.4492 52.096 61.6919 51.9093 61.0199 51.536C60.3479 51.1627 59.8199 50.6507 59.4359 50C59.0625 49.3387 58.8759 48.592 58.8759 47.76C58.8759 46.928 59.0625 46.1867 59.4359 45.536C59.8199 44.8747 60.3479 44.3627 61.0199 44C61.6919 43.6267 62.4492 43.44 63.2919 43.44C64.1345 43.44 64.8865 43.6267 65.5479 44C66.2199 44.3627 66.7425 44.8747 67.1159 45.536C67.4999 46.1867 67.6919 46.928 67.6919 47.76C67.6919 48.592 67.4999 49.3387 67.1159 50C66.7425 50.6507 66.2199 51.1627 65.5479 51.536C64.8865 51.9093 64.1345 52.096 63.2919 52.096ZM63.2919 50.752C63.8359 50.752 64.3212 50.6293 64.7479 50.384C65.1852 50.128 65.5265 49.776 65.7719 49.328C66.0172 48.8693 66.1399 48.3467 66.1399 47.76C66.1399 47.1733 66.0172 46.656 65.7719 46.208C65.5265 45.7493 65.1852 45.3973 64.7479 45.152C64.3212 44.9067 63.8359 44.784 63.2919 44.784C62.7479 44.784 62.2572 44.9067 61.8199 45.152C61.3932 45.3973 61.0519 45.7493 60.7959 46.208C60.5505 46.656 60.4279 47.1733 60.4279 47.76C60.4279 48.3467 60.5505 48.8693 60.7959 49.328C61.0519 49.776 61.3932 50.128 61.8199 50.384C62.2572 50.6293 62.7479 50.752 63.2919 50.752ZM79.6859 43.52V52H78.2939V45.808L75.1259 51.04H74.4539L71.3179 45.792V52H69.9099V43.52H71.4939L74.8219 49.248L78.2459 43.52H79.6859ZM83.0115 52.096C82.7128 52.096 82.4568 51.9947 82.2435 51.792C82.0302 51.5787 81.9235 51.312 81.9235 50.992C81.9235 50.6827 82.0302 50.4267 82.2435 50.224C82.4568 50.0107 82.7128 49.904 83.0115 49.904C83.3102 49.904 83.5608 50.0053 83.7635 50.208C83.9662 50.4107 84.0675 50.672 84.0675 50.992C84.0675 51.312 83.9608 51.5787 83.7475 51.792C83.5448 51.9947 83.2995 52.096 83.0115 52.096ZM99.0614 40.8V52H97.4934V48.736H94.4054C94.2134 48.736 94.0694 48.7307 93.9734 48.72L91.7334 52H90.0374L92.5174 48.448C91.7174 48.1813 91.104 47.7387 90.6774 47.12C90.2507 46.4907 90.0374 45.728 90.0374 44.832C90.0374 43.5627 90.4427 42.576 91.2534 41.872C92.0747 41.1573 93.1787 40.8 94.5654 40.8H99.0614ZM91.6534 44.816C91.6534 45.648 91.8934 46.288 92.3734 46.736C92.864 47.1733 93.584 47.392 94.5334 47.392H97.4934V42.192H94.6294C93.6694 42.192 92.9334 42.416 92.4214 42.864C91.9094 43.312 91.6534 43.9627 91.6534 44.816ZM110.229 52.096C109.387 52.096 108.629 51.9093 107.957 51.536C107.285 51.1627 106.757 50.6507 106.373 50C106 49.3387 105.813 48.592 105.813 47.76C105.813 46.928 106 46.1867 106.373 45.536C106.757 44.8747 107.285 44.3627 107.957 44C108.629 43.6267 109.387 43.44 110.229 43.44C111.072 43.44 111.824 43.6267 112.485 44C113.157 44.3627 113.68 44.8747 114.053 45.536C114.437 46.1867 114.629 46.928 114.629 47.76C114.629 48.592 114.437 49.3387 114.053 50C113.68 50.6507 113.157 51.1627 112.485 51.536C111.824 51.9093 111.072 52.096 110.229 52.096ZM110.229 50.752C110.773 50.752 111.259 50.6293 111.685 50.384C112.123 50.128 112.464 49.776 112.709 49.328C112.955 48.8693 113.077 48.3467 113.077 47.76C113.077 47.1733 112.955 46.656 112.709 46.208C112.464 45.7493 112.123 45.3973 111.685 45.152C111.259 44.9067 110.773 44.784 110.229 44.784C109.685 44.784 109.195 44.9067 108.757 45.152C108.331 45.3973 107.989 45.7493 107.733 46.208C107.488 46.656 107.365 47.1733 107.365 47.76C107.365 48.3467 107.488 48.8693 107.733 49.328C107.989 49.776 108.331 50.128 108.757 50.384C109.195 50.6293 109.685 50.752 110.229 50.752ZM123.615 43.52V52H122.079V48.576C121.162 49.0027 120.25 49.216 119.343 49.216C118.287 49.216 117.471 48.9707 116.895 48.48C116.319 47.9893 116.031 47.2533 116.031 46.272V43.52H117.567V46.176C117.567 46.7627 117.749 47.2053 118.111 47.504C118.485 47.8027 119.002 47.952 119.663 47.952C120.41 47.952 121.215 47.7653 122.079 47.392V43.52H123.615ZM134.261 47.808C134.261 47.9253 134.251 48.08 134.229 48.272H127.349C127.445 49.0187 127.771 49.6213 128.325 50.08C128.891 50.528 129.589 50.752 130.421 50.752C131.435 50.752 132.251 50.4107 132.869 49.728L133.717 50.72C133.333 51.168 132.853 51.5093 132.277 51.744C131.712 51.9787 131.077 52.096 130.373 52.096C129.477 52.096 128.683 51.9147 127.989 51.552C127.296 51.1787 126.757 50.6613 126.373 50C126 49.3387 125.813 48.592 125.813 47.76C125.813 46.9387 125.995 46.1973 126.357 45.536C126.731 44.8747 127.237 44.3627 127.877 44C128.528 43.6267 129.259 43.44 130.069 43.44C130.88 43.44 131.6 43.6267 132.229 44C132.869 44.3627 133.365 44.8747 133.717 45.536C134.08 46.1973 134.261 46.9547 134.261 47.808ZM130.069 44.736C129.333 44.736 128.715 44.96 128.213 45.408C127.723 45.856 127.435 46.4427 127.349 47.168H132.789C132.704 46.4533 132.411 45.872 131.909 45.424C131.419 44.9653 130.805 44.736 130.069 44.736ZM136.644 43.52H138.18V47.12H143.012V43.52H144.548V52H143.012V48.448H138.18V52H136.644V43.52ZM151.455 46.4C152.532 46.4107 153.354 46.656 153.919 47.136C154.484 47.616 154.767 48.2933 154.767 49.168C154.767 50.0853 154.458 50.7947 153.839 51.296C153.231 51.7867 152.356 52.0267 151.215 52.016L147.535 52V43.52H149.071V46.384L151.455 46.4ZM151.087 50.848C151.78 50.8587 152.303 50.72 152.655 50.432C153.018 50.144 153.199 49.7173 153.199 49.152C153.199 48.5973 153.023 48.192 152.671 47.936C152.33 47.68 151.802 47.5467 151.087 47.536L149.071 47.504V50.832L151.087 50.848ZM168.315 43.52V52H166.779V44.864H163.131L163.035 46.752C162.982 47.8933 162.88 48.848 162.731 49.616C162.582 50.3733 162.336 50.9813 161.995 51.44C161.654 51.8987 161.179 52.128 160.571 52.128C160.294 52.128 159.979 52.08 159.627 51.984L159.723 50.688C159.862 50.72 159.99 50.736 160.107 50.736C160.534 50.736 160.854 50.5493 161.067 50.176C161.28 49.8027 161.419 49.36 161.483 48.848C161.547 48.336 161.606 47.6053 161.659 46.656L161.803 43.52H168.315ZM178.789 43.44C179.61 43.44 180.346 43.6267 180.997 44C181.648 44.3627 182.16 44.8747 182.533 45.536C182.906 46.1867 183.093 46.928 183.093 47.76C183.093 48.592 182.906 49.3387 182.533 50C182.16 50.6507 181.648 51.1627 180.997 51.536C180.346 51.9093 179.61 52.096 178.789 52.096C178.042 52.096 177.365 51.9413 176.757 51.632C176.149 51.3227 175.648 50.8907 175.253 50.336C174.869 49.7707 174.629 49.1307 174.533 48.416H172.821V52H171.285V43.52H172.821V46.992H174.549C174.656 46.288 174.901 45.6693 175.285 45.136C175.68 44.592 176.176 44.176 176.773 43.888C177.381 43.5893 178.053 43.44 178.789 43.44ZM178.789 50.752C179.312 50.752 179.781 50.6293 180.197 50.384C180.624 50.1387 180.96 49.792 181.205 49.344C181.45 48.8853 181.573 48.3573 181.573 47.76C181.573 47.1733 181.45 46.656 181.205 46.208C180.96 45.7493 180.624 45.3973 180.197 45.152C179.781 44.9067 179.312 44.784 178.789 44.784C178.266 44.784 177.792 44.9067 177.365 45.152C176.938 45.3973 176.602 45.7493 176.357 46.208C176.122 46.656 176.005 47.1733 176.005 47.76C176.005 48.3573 176.122 48.8853 176.357 49.344C176.602 49.792 176.938 50.1387 177.365 50.384C177.792 50.6293 178.266 50.752 178.789 50.752ZM189.621 43.808C190.41 43.808 191.114 43.984 191.733 44.336C192.351 44.688 192.831 45.1787 193.173 45.808C193.525 46.4267 193.701 47.136 193.701 47.936C193.701 48.7573 193.514 49.488 193.141 50.128C192.778 50.7573 192.261 51.248 191.589 51.6C190.927 51.952 190.17 52.128 189.317 52.128C187.877 52.128 186.762 51.6373 185.973 50.656C185.194 49.664 184.805 48.272 184.805 46.48C184.805 44.7413 185.162 43.3813 185.877 42.4C186.591 41.408 187.685 40.752 189.157 40.432L193.029 39.568L193.253 40.976L189.685 41.744C188.575 41.9893 187.749 42.4053 187.205 42.992C186.661 43.5787 186.351 44.4213 186.277 45.52C186.639 44.976 187.109 44.5547 187.685 44.256C188.261 43.9573 188.906 43.808 189.621 43.808ZM189.349 50.848C189.893 50.848 190.373 50.7253 190.789 50.48C191.215 50.2347 191.546 49.8987 191.781 49.472C192.015 49.0347 192.133 48.5387 192.133 47.984C192.133 47.1413 191.877 46.464 191.365 45.952C190.853 45.44 190.181 45.184 189.349 45.184C188.517 45.184 187.839 45.44 187.317 45.952C186.805 46.464 186.549 47.1413 186.549 47.984C186.549 48.5387 186.666 49.0347 186.901 49.472C187.146 49.8987 187.482 50.2347 187.909 50.48C188.335 50.7253 188.815 50.848 189.349 50.848ZM203.112 43.52V52H201.576V44.864H197.928L197.832 46.752C197.778 47.8933 197.677 48.848 197.528 49.616C197.378 50.3733 197.133 50.9813 196.792 51.44C196.45 51.8987 195.976 52.128 195.368 52.128C195.09 52.128 194.776 52.08 194.424 51.984L194.52 50.688C194.658 50.72 194.786 50.736 194.904 50.736C195.33 50.736 195.65 50.5493 195.864 50.176C196.077 49.8027 196.216 49.36 196.28 48.848C196.344 48.336 196.402 47.6053 196.456 46.656L196.6 43.52H203.112ZM213.586 43.44C214.407 43.44 215.143 43.6267 215.794 44C216.444 44.3627 216.956 44.8747 217.33 45.536C217.703 46.1867 217.89 46.928 217.89 47.76C217.89 48.592 217.703 49.3387 217.33 50C216.956 50.6507 216.444 51.1627 215.794 51.536C215.143 51.9093 214.407 52.096 213.586 52.096C212.839 52.096 212.162 51.9413 211.554 51.632C210.946 51.3227 210.444 50.8907 210.05 50.336C209.666 49.7707 209.426 49.1307 209.33 48.416H207.618V52H206.082V43.52H207.618V46.992H209.346C209.452 46.288 209.698 45.6693 210.082 45.136C210.476 44.592 210.972 44.176 211.57 43.888C212.178 43.5893 212.85 43.44 213.586 43.44ZM213.586 50.752C214.108 50.752 214.578 50.6293 214.994 50.384C215.42 50.1387 215.756 49.792 216.002 49.344C216.247 48.8853 216.37 48.3573 216.37 47.76C216.37 47.1733 216.247 46.656 216.002 46.208C215.756 45.7493 215.42 45.3973 214.994 45.152C214.578 44.9067 214.108 44.784 213.586 44.784C213.063 44.784 212.588 44.9067 212.162 45.152C211.735 45.3973 211.399 45.7493 211.154 46.208C210.919 46.656 210.802 47.1733 210.802 47.76C210.802 48.3573 210.919 48.8853 211.154 49.344C211.399 49.792 211.735 50.1387 212.162 50.384C212.588 50.6293 213.063 50.752 213.586 50.752ZM22.8168 72.096C21.9528 72.096 21.1795 71.9093 20.4968 71.536C19.8248 71.1627 19.2968 70.6507 18.9128 70C18.5288 69.3387 18.3368 68.592 18.3368 67.76C18.3368 66.928 18.5288 66.1867 18.9128 65.536C19.2968 64.8747 19.8248 64.3627 20.4968 64C21.1795 63.6267 21.9528 63.44 22.8168 63.44C23.5848 63.44 24.2675 63.5947 24.8648 63.904C25.4728 64.2133 25.9421 64.6613 26.2728 65.248L25.1048 66C24.8381 65.5947 24.5075 65.2907 24.1128 65.088C23.7181 64.8853 23.2808 64.784 22.8008 64.784C22.2461 64.784 21.7448 64.9067 21.2968 65.152C20.8595 65.3973 20.5128 65.7493 20.2568 66.208C20.0115 66.656 19.8888 67.1733 19.8888 67.76C19.8888 68.3573 20.0115 68.8853 20.2568 69.344C20.5128 69.792 20.8595 70.1387 21.2968 70.384C21.7448 70.6293 22.2461 70.752 22.8008 70.752C23.2808 70.752 23.7181 70.6507 24.1128 70.448C24.5075 70.2453 24.8381 69.9413 25.1048 69.536L26.2728 70.272C25.9421 70.8587 25.4728 71.312 24.8648 71.632C24.2675 71.9413 23.5848 72.096 22.8168 72.096ZM34.0374 67.6C35.1361 67.8773 35.6854 68.5653 35.6854 69.664C35.6854 70.4107 35.4028 70.9867 34.8374 71.392C34.2828 71.7973 33.4508 72 32.3414 72H28.2614V63.52H32.1974C33.2001 63.52 33.9841 63.712 34.5494 64.096C35.1148 64.4693 35.3974 65.0027 35.3974 65.696C35.3974 66.144 35.2748 66.5333 35.0294 66.864C34.7948 67.184 34.4641 67.4293 34.0374 67.6ZM29.7654 67.168H32.0694C32.6561 67.168 33.0988 67.0613 33.3974 66.848C33.7068 66.6347 33.8614 66.3253 33.8614 65.92C33.8614 65.1093 33.2641 64.704 32.0694 64.704H29.7654V67.168ZM32.2294 70.816C32.8694 70.816 33.3494 70.7147 33.6694 70.512C33.9894 70.3093 34.1494 69.9947 34.1494 69.568C34.1494 69.1307 34.0001 68.8053 33.7014 68.592C33.4134 68.3787 32.9548 68.272 32.3254 68.272H29.7654V70.816H32.2294ZM41.7216 72.096C40.8789 72.096 40.1216 71.9093 39.4496 71.536C38.7776 71.1627 38.2496 70.6507 37.8656 70C37.4922 69.3387 37.3056 68.592 37.3056 67.76C37.3056 66.928 37.4922 66.1867 37.8656 65.536C38.2496 64.8747 38.7776 64.3627 39.4496 64C40.1216 63.6267 40.8789 63.44 41.7216 63.44C42.5642 63.44 43.3162 63.6267 43.9776 64C44.6496 64.3627 45.1722 64.8747 45.5456 65.536C45.9296 66.1867 46.1216 66.928 46.1216 67.76C46.1216 68.592 45.9296 69.3387 45.5456 70C45.1722 70.6507 44.6496 71.1627 43.9776 71.536C43.3162 71.9093 42.5642 72.096 41.7216 72.096ZM41.7216 70.752C42.2656 70.752 42.7509 70.6293 43.1776 70.384C43.6149 70.128 43.9562 69.776 44.2016 69.328C44.4469 68.8693 44.5696 68.3467 44.5696 67.76C44.5696 67.1733 44.4469 66.656 44.2016 66.208C43.9562 65.7493 43.6149 65.3973 43.1776 65.152C42.7509 64.9067 42.2656 64.784 41.7216 64.784C41.1776 64.784 40.6869 64.9067 40.2496 65.152C39.8229 65.3973 39.4816 65.7493 39.2256 66.208C38.9802 66.656 38.8576 67.1733 38.8576 67.76C38.8576 68.3467 38.9802 68.8693 39.2256 69.328C39.4816 69.776 39.8229 70.128 40.2496 70.384C40.6869 70.6293 41.1776 70.752 41.7216 70.752ZM55.8436 63.44C56.6649 63.44 57.4009 63.6267 58.0516 64C58.7022 64.3627 59.2142 64.8747 59.5876 65.536C59.9609 66.1867 60.1476 66.928 60.1476 67.76C60.1476 68.592 59.9609 69.3387 59.5876 70C59.2142 70.6507 58.7022 71.1627 58.0516 71.536C57.4009 71.9093 56.6649 72.096 55.8436 72.096C55.0969 72.096 54.4196 71.9413 53.8116 71.632C53.2036 71.3227 52.7022 70.8907 52.3076 70.336C51.9236 69.7707 51.6836 69.1307 51.5876 68.416H49.8756V72H48.3396V63.52H49.8756V66.992H51.6036C51.7102 66.288 51.9556 65.6693 52.3396 65.136C52.7342 64.592 53.2302 64.176 53.8276 63.888C54.4356 63.5893 55.1076 63.44 55.8436 63.44ZM55.8436 70.752C56.3662 70.752 56.8356 70.6293 57.2516 70.384C57.6782 70.1387 58.0142 69.792 58.2596 69.344C58.5049 68.8853 58.6276 68.3573 58.6276 67.76C58.6276 67.1733 58.5049 66.656 58.2596 66.208C58.0142 65.7493 57.6782 65.3973 57.2516 65.152C56.8356 64.9067 56.3662 64.784 55.8436 64.784C55.3209 64.784 54.8462 64.9067 54.4196 65.152C53.9929 65.3973 53.6569 65.7493 53.4116 66.208C53.1769 66.656 53.0596 67.1733 53.0596 67.76C53.0596 68.3573 53.1769 68.8853 53.4116 69.344C53.6569 69.792 53.9929 70.1387 54.4196 70.384C54.8462 70.6293 55.3209 70.752 55.8436 70.752ZM71.1481 63.44C71.9694 63.44 72.7054 63.6213 73.3561 63.984C74.0067 64.3467 74.5134 64.8533 74.8761 65.504C75.2494 66.1547 75.4361 66.9067 75.4361 67.76C75.4361 68.6133 75.2494 69.3707 74.8761 70.032C74.5134 70.6827 74.0067 71.1893 73.3561 71.552C72.7054 71.9147 71.9694 72.096 71.1481 72.096C70.5401 72.096 69.9801 71.9787 69.4681 71.744C68.9667 71.5093 68.5401 71.168 68.1881 70.72V75.104H66.6521V63.52H68.1241V64.864C68.4654 64.3947 68.8974 64.0427 69.4201 63.808C69.9427 63.5627 70.5187 63.44 71.1481 63.44ZM71.0201 70.752C71.5641 70.752 72.0494 70.6293 72.4761 70.384C72.9134 70.128 73.2547 69.776 73.5001 69.328C73.7561 68.8693 73.8841 68.3467 73.8841 67.76C73.8841 67.1733 73.7561 66.656 73.5001 66.208C73.2547 65.7493 72.9134 65.3973 72.4761 65.152C72.0494 64.9067 71.5641 64.784 71.0201 64.784C70.4867 64.784 70.0014 64.912 69.5641 65.168C69.1374 65.4133 68.7961 65.76 68.5401 66.208C68.2947 66.656 68.1721 67.1733 68.1721 67.76C68.1721 68.3467 68.2947 68.8693 68.5401 69.328C68.7854 69.776 69.1267 70.128 69.5641 70.384C70.0014 70.6293 70.4867 70.752 71.0201 70.752ZM80.6136 63.44C81.7869 63.44 82.6829 63.728 83.3016 64.304C83.9309 64.88 84.2456 65.7387 84.2456 66.88V72H82.7896V70.88C82.5336 71.2747 82.1656 71.5787 81.6856 71.792C81.2162 71.9947 80.6562 72.096 80.0056 72.096C79.0562 72.096 78.2936 71.8667 77.7176 71.408C77.1522 70.9493 76.8696 70.3467 76.8696 69.6C76.8696 68.8533 77.1416 68.256 77.6856 67.808C78.2296 67.3493 79.0936 67.12 80.2776 67.12H82.7096V66.816C82.7096 66.1547 82.5176 65.648 82.1336 65.296C81.7496 64.944 81.1842 64.768 80.4376 64.768C79.9362 64.768 79.4456 64.8533 78.9656 65.024C78.4856 65.184 78.0802 65.4027 77.7496 65.68L77.1096 64.528C77.5469 64.176 78.0696 63.9093 78.6776 63.728C79.2856 63.536 79.9309 63.44 80.6136 63.44ZM80.2616 70.912C80.8482 70.912 81.3549 70.784 81.7816 70.528C82.2082 70.2613 82.5176 69.888 82.7096 69.408V68.224H80.3416C79.0402 68.224 78.3896 68.6613 78.3896 69.536C78.3896 69.9627 78.5549 70.2987 78.8856 70.544C79.2162 70.7893 79.6749 70.912 80.2616 70.912ZM91.3314 63.808C92.1208 63.808 92.8248 63.984 93.4434 64.336C94.0621 64.688 94.5421 65.1787 94.8834 65.808C95.2354 66.4267 95.4114 67.136 95.4114 67.936C95.4114 68.7573 95.2248 69.488 94.8514 70.128C94.4888 70.7573 93.9714 71.248 93.2994 71.6C92.6381 71.952 91.8808 72.128 91.0274 72.128C89.5874 72.128 88.4728 71.6373 87.6834 70.656C86.9048 69.664 86.5154 68.272 86.5154 66.48C86.5154 64.7413 86.8728 63.3813 87.5874 62.4C88.3021 61.408 89.3954 60.752 90.8674 60.432L94.7394 59.568L94.9634 60.976L91.3954 61.744C90.2861 61.9893 89.4594 62.4053 88.9154 62.992C88.3714 63.5787 88.0621 64.4213 87.9874 65.52C88.3501 64.976 88.8194 64.5547 89.3954 64.256C89.9714 63.9573 90.6168 63.808 91.3314 63.808ZM91.0594 70.848C91.6034 70.848 92.0834 70.7253 92.4994 70.48C92.9261 70.2347 93.2568 69.8987 93.4914 69.472C93.7261 69.0347 93.8434 68.5387 93.8434 67.984C93.8434 67.1413 93.5874 66.464 93.0754 65.952C92.5634 65.44 91.8914 65.184 91.0594 65.184C90.2274 65.184 89.5501 65.44 89.0274 65.952C88.5154 66.464 88.2594 67.1413 88.2594 67.984C88.2594 68.5387 88.3768 69.0347 88.6114 69.472C88.8568 69.8987 89.1928 70.2347 89.6194 70.48C90.0461 70.7253 90.5261 70.848 91.0594 70.848ZM101.237 72.096C100.395 72.096 99.6372 71.9093 98.9652 71.536C98.2932 71.1627 97.7652 70.6507 97.3812 70C97.0079 69.3387 96.8212 68.592 96.8212 67.76C96.8212 66.928 97.0079 66.1867 97.3812 65.536C97.7652 64.8747 98.2932 64.3627 98.9652 64C99.6372 63.6267 100.395 63.44 101.237 63.44C102.08 63.44 102.832 63.6267 103.493 64C104.165 64.3627 104.688 64.8747 105.061 65.536C105.445 66.1867 105.637 66.928 105.637 67.76C105.637 68.592 105.445 69.3387 105.061 70C104.688 70.6507 104.165 71.1627 103.493 71.536C102.832 71.9093 102.08 72.096 101.237 72.096ZM101.237 70.752C101.781 70.752 102.267 70.6293 102.693 70.384C103.131 70.128 103.472 69.776 103.717 69.328C103.963 68.8693 104.085 68.3467 104.085 67.76C104.085 67.1733 103.963 66.656 103.717 66.208C103.472 65.7493 103.131 65.3973 102.693 65.152C102.267 64.9067 101.781 64.784 101.237 64.784C100.693 64.784 100.203 64.9067 99.7652 65.152C99.3385 65.3973 98.9972 65.7493 98.7412 66.208C98.4959 66.656 98.3732 67.1733 98.3732 67.76C98.3732 68.3467 98.4959 68.8693 98.7412 69.328C98.9972 69.776 99.3385 70.128 99.7652 70.384C100.203 70.6293 100.693 70.752 101.237 70.752ZM113.863 64.864H110.759V72H109.223V64.864H106.119V63.52H113.863V64.864ZM123.048 63.52L118.936 72.848C118.574 73.712 118.147 74.32 117.656 74.672C117.176 75.024 116.595 75.2 115.912 75.2C115.496 75.2 115.091 75.1307 114.696 74.992C114.312 74.864 113.992 74.672 113.736 74.416L114.392 73.264C114.83 73.68 115.336 73.888 115.912 73.888C116.286 73.888 116.595 73.7867 116.84 73.584C117.096 73.392 117.326 73.056 117.528 72.576L117.8 71.984L114.056 63.52H115.656L118.616 70.304L121.544 63.52H123.048ZM124.442 69.904C124.74 69.904 124.986 70.0107 125.178 70.224C125.38 70.4267 125.482 70.6827 125.482 70.992C125.482 71.152 125.46 71.3067 125.418 71.456C125.386 71.6053 125.316 71.8347 125.21 72.144L124.458 74.368H123.45L124.042 71.984C123.839 71.9093 123.674 71.7867 123.546 71.616C123.428 71.4347 123.37 71.2267 123.37 70.992C123.37 70.672 123.471 70.4107 123.674 70.208C123.876 70.0053 124.132 69.904 124.442 69.904ZM139.867 63.52V72H138.331V64.864H133.547V72H132.011V63.52H139.867ZM146.472 72.096C145.629 72.096 144.872 71.9093 144.2 71.536C143.528 71.1627 143 70.6507 142.616 70C142.242 69.3387 142.056 68.592 142.056 67.76C142.056 66.928 142.242 66.1867 142.616 65.536C143 64.8747 143.528 64.3627 144.2 64C144.872 63.6267 145.629 63.44 146.472 63.44C147.314 63.44 148.066 63.6267 148.728 64C149.4 64.3627 149.922 64.8747 150.296 65.536C150.68 66.1867 150.872 66.928 150.872 67.76C150.872 68.592 150.68 69.3387 150.296 70C149.922 70.6507 149.4 71.1627 148.728 71.536C148.066 71.9093 147.314 72.096 146.472 72.096ZM146.472 70.752C147.016 70.752 147.501 70.6293 147.928 70.384C148.365 70.128 148.706 69.776 148.952 69.328C149.197 68.8693 149.32 68.3467 149.32 67.76C149.32 67.1733 149.197 66.656 148.952 66.208C148.706 65.7493 148.365 65.3973 147.928 65.152C147.501 64.9067 147.016 64.784 146.472 64.784C145.928 64.784 145.437 64.9067 145 65.152C144.573 65.3973 144.232 65.7493 143.976 66.208C143.73 66.656 143.608 67.1733 143.608 67.76C143.608 68.3467 143.73 68.8693 143.976 69.328C144.232 69.776 144.573 70.128 145 70.384C145.437 70.6293 145.928 70.752 146.472 70.752ZM155.444 63.424C156.308 63.424 157.086 63.6107 157.78 63.984C158.484 64.3573 159.033 64.8747 159.428 65.536C159.822 66.1973 160.02 66.9387 160.02 67.76C160.02 68.592 159.822 69.3387 159.428 70C159.033 70.6613 158.484 71.1787 157.78 71.552C157.086 71.9253 156.308 72.112 155.444 72.112C154.697 72.112 154.02 71.9947 153.412 71.76C152.814 71.5253 152.308 71.184 151.892 70.736L152.788 69.84C153.47 70.512 154.334 70.848 155.38 70.848C156.212 70.848 156.921 70.6133 157.508 70.144C158.094 69.664 158.446 69.04 158.564 68.272H154.308V67.136H158.532C158.393 66.4 158.036 65.808 157.46 65.36C156.884 64.9013 156.19 64.672 155.38 64.672C154.345 64.672 153.481 65.0133 152.788 65.696L151.892 64.816C152.308 64.3573 152.82 64.0107 153.428 63.776C154.036 63.5413 154.708 63.424 155.444 63.424ZM168.206 64.864H165.102V72H163.566V64.864H160.462V63.52H168.206V64.864ZM173.034 72.096C172.191 72.096 171.434 71.9093 170.762 71.536C170.09 71.1627 169.562 70.6507 169.178 70C168.805 69.3387 168.618 68.592 168.618 67.76C168.618 66.928 168.805 66.1867 169.178 65.536C169.562 64.8747 170.09 64.3627 170.762 64C171.434 63.6267 172.191 63.44 173.034 63.44C173.877 63.44 174.629 63.6267 175.29 64C175.962 64.3627 176.485 64.8747 176.858 65.536C177.242 66.1867 177.434 66.928 177.434 67.76C177.434 68.592 177.242 69.3387 176.858 70C176.485 70.6507 175.962 71.1627 175.29 71.536C174.629 71.9093 173.877 72.096 173.034 72.096ZM173.034 70.752C173.578 70.752 174.063 70.6293 174.49 70.384C174.927 70.128 175.269 69.776 175.514 69.328C175.759 68.8693 175.882 68.3467 175.882 67.76C175.882 67.1733 175.759 66.656 175.514 66.208C175.269 65.7493 174.927 65.3973 174.49 65.152C174.063 64.9067 173.578 64.784 173.034 64.784C172.49 64.784 171.999 64.9067 171.562 65.152C171.135 65.3973 170.794 65.7493 170.538 66.208C170.293 66.656 170.17 67.1733 170.17 67.76C170.17 68.3467 170.293 68.8693 170.538 69.328C170.794 69.776 171.135 70.128 171.562 70.384C171.999 70.6293 172.49 70.752 173.034 70.752ZM189.428 63.52V72H188.036V65.808L184.868 71.04H184.196L181.06 65.792V72H179.652V63.52H181.236L184.564 69.248L187.988 63.52H189.428ZM199.986 63.52L195.874 72.848C195.511 73.712 195.084 74.32 194.594 74.672C194.114 75.024 193.532 75.2 192.85 75.2C192.434 75.2 192.028 75.1307 191.634 74.992C191.25 74.864 190.93 74.672 190.674 74.416L191.33 73.264C191.767 73.68 192.274 73.888 192.85 73.888C193.223 73.888 193.532 73.7867 193.778 73.584C194.034 73.392 194.263 73.056 194.466 72.576L194.738 71.984L190.994 63.52H192.594L195.554 70.304L198.482 63.52H199.986ZM17.4203 87.6C18.5189 87.8773 19.0683 88.5653 19.0683 89.664C19.0683 90.4107 18.7856 90.9867 18.2203 91.392C17.6656 91.7973 16.8336 92 15.7243 92H11.6443V83.52H15.5803C16.5829 83.52 17.3669 83.712 17.9323 84.096C18.4976 84.4693 18.7803 85.0027 18.7803 85.696C18.7803 86.144 18.6576 86.5333 18.4123 86.864C18.1776 87.184 17.8469 87.4293 17.4203 87.6ZM13.1483 87.168H15.4523C16.0389 87.168 16.4816 87.0613 16.7803 86.848C17.0896 86.6347 17.2443 86.3253 17.2443 85.92C17.2443 85.1093 16.6469 84.704 15.4523 84.704H13.1483V87.168ZM15.6123 90.816C16.2523 90.816 16.7323 90.7147 17.0523 90.512C17.3723 90.3093 17.5323 89.9947 17.5323 89.568C17.5323 89.1307 17.3829 88.8053 17.0843 88.592C16.7963 88.3787 16.3376 88.272 15.7083 88.272H13.1483V90.816H15.6123ZM24.4964 83.44C25.6697 83.44 26.5657 83.728 27.1844 84.304C27.8137 84.88 28.1284 85.7387 28.1284 86.88V92H26.6724V90.88C26.4164 91.2747 26.0484 91.5787 25.5684 91.792C25.099 91.9947 24.539 92.096 23.8884 92.096C22.939 92.096 22.1764 91.8667 21.6004 91.408C21.035 90.9493 20.7524 90.3467 20.7524 89.6C20.7524 88.8533 21.0244 88.256 21.5684 87.808C22.1124 87.3493 22.9764 87.12 24.1604 87.12H26.5924V86.816C26.5924 86.1547 26.4004 85.648 26.0164 85.296C25.6324 84.944 25.067 84.768 24.3204 84.768C23.819 84.768 23.3284 84.8533 22.8484 85.024C22.3684 85.184 21.963 85.4027 21.6324 85.68L20.9924 84.528C21.4297 84.176 21.9524 83.9093 22.5604 83.728C23.1684 83.536 23.8137 83.44 24.4964 83.44ZM24.1444 90.912C24.731 90.912 25.2377 90.784 25.6644 90.528C26.091 90.2613 26.4004 89.888 26.5924 89.408V88.224H24.2244C22.923 88.224 22.2724 88.6613 22.2724 89.536C22.2724 89.9627 22.4377 90.2987 22.7684 90.544C23.099 90.7893 23.5577 90.912 24.1444 90.912ZM34.5903 92.096C33.7263 92.096 32.9529 91.9093 32.2703 91.536C31.5983 91.1627 31.0703 90.6507 30.6863 90C30.3023 89.3387 30.1103 88.592 30.1103 87.76C30.1103 86.928 30.3023 86.1867 30.6863 85.536C31.0703 84.8747 31.5983 84.3627 32.2703 84C32.9529 83.6267 33.7263 83.44 34.5903 83.44C35.3583 83.44 36.0409 83.5947 36.6383 83.904C37.2463 84.2133 37.7156 84.6613 38.0463 85.248L36.8783 86C36.6116 85.5947 36.2809 85.2907 35.8863 85.088C35.4916 84.8853 35.0543 84.784 34.5743 84.784C34.0196 84.784 33.5183 84.9067 33.0703 85.152C32.6329 85.3973 32.2863 85.7493 32.0303 86.208C31.7849 86.656 31.6623 87.1733 31.6623 87.76C31.6623 88.3573 31.7849 88.8853 32.0303 89.344C32.2863 89.792 32.6329 90.1387 33.0703 90.384C33.5183 90.6293 34.0196 90.752 34.5743 90.752C35.0543 90.752 35.4916 90.6507 35.8863 90.448C36.2809 90.2453 36.6116 89.9413 36.8783 89.536L38.0463 90.272C37.7156 90.8587 37.2463 91.312 36.6383 91.632C36.0409 91.9413 35.3583 92.096 34.5903 92.096ZM47.9638 92.096C47.1211 92.096 46.3638 91.9093 45.6918 91.536C45.0198 91.1627 44.4918 90.6507 44.1078 90C43.7344 89.3387 43.5478 88.592 43.5478 87.76C43.5478 86.928 43.7344 86.1867 44.1078 85.536C44.4918 84.8747 45.0198 84.3627 45.6918 84C46.3638 83.6267 47.1211 83.44 47.9638 83.44C48.8064 83.44 49.5584 83.6267 50.2198 84C50.8918 84.3627 51.4144 84.8747 51.7878 85.536C52.1718 86.1867 52.3638 86.928 52.3638 87.76C52.3638 88.592 52.1718 89.3387 51.7878 90C51.4144 90.6507 50.8918 91.1627 50.2198 91.536C49.5584 91.9093 48.8064 92.096 47.9638 92.096ZM47.9638 90.752C48.5078 90.752 48.9931 90.6293 49.4198 90.384C49.8571 90.128 50.1984 89.776 50.4438 89.328C50.6891 88.8693 50.8118 88.3467 50.8118 87.76C50.8118 87.1733 50.6891 86.656 50.4438 86.208C50.1984 85.7493 49.8571 85.3973 49.4198 85.152C48.9931 84.9067 48.5078 84.784 47.9638 84.784C47.4198 84.784 46.9291 84.9067 46.4918 85.152C46.0651 85.3973 45.7238 85.7493 45.4678 86.208C45.2224 86.656 45.0998 87.1733 45.0998 87.76C45.0998 88.3467 45.2224 88.8693 45.4678 89.328C45.7238 89.776 46.0651 90.128 46.4918 90.384C46.9291 90.6293 47.4198 90.752 47.9638 90.752ZM58.9018 83.808C59.6911 83.808 60.3951 83.984 61.0138 84.336C61.6324 84.688 62.1124 85.1787 62.4538 85.808C62.8058 86.4267 62.9818 87.136 62.9818 87.936C62.9818 88.7573 62.7951 89.488 62.4218 90.128C62.0591 90.7573 61.5418 91.248 60.8698 91.6C60.2084 91.952 59.4511 92.128 58.5978 92.128C57.1578 92.128 56.0431 91.6373 55.2538 90.656C54.4751 89.664 54.0858 88.272 54.0858 86.48C54.0858 84.7413 54.4431 83.3813 55.1578 82.4C55.8724 81.408 56.9658 80.752 58.4378 80.432L62.3098 79.568L62.5338 80.976L58.9658 81.744C57.8564 81.9893 57.0298 82.4053 56.4858 82.992C55.9418 83.5787 55.6324 84.4213 55.5578 85.52C55.9204 84.976 56.3898 84.5547 56.9658 84.256C57.5418 83.9573 58.1871 83.808 58.9018 83.808ZM58.6298 90.848C59.1738 90.848 59.6538 90.7253 60.0698 90.48C60.4964 90.2347 60.8271 89.8987 61.0618 89.472C61.2964 89.0347 61.4138 88.5387 61.4138 87.984C61.4138 87.1413 61.1578 86.464 60.6458 85.952C60.1338 85.44 59.4618 85.184 58.6298 85.184C57.7978 85.184 57.1204 85.44 56.5978 85.952C56.0858 86.464 55.8298 87.1413 55.8298 87.984C55.8298 88.5387 55.9471 89.0347 56.1818 89.472C56.4271 89.8987 56.7631 90.2347 57.1898 90.48C57.6164 90.7253 58.0964 90.848 58.6298 90.848ZM69.6715 83.44C70.4928 83.44 71.2288 83.6213 71.8795 83.984C72.5302 84.3467 73.0368 84.8533 73.3995 85.504C73.7728 86.1547 73.9595 86.9067 73.9595 87.76C73.9595 88.6133 73.7728 89.3707 73.3995 90.032C73.0368 90.6827 72.5302 91.1893 71.8795 91.552C71.2288 91.9147 70.4928 92.096 69.6715 92.096C69.0635 92.096 68.5035 91.9787 67.9915 91.744C67.4902 91.5093 67.0635 91.168 66.7115 90.72V95.104H65.1755V83.52H66.6475V84.864C66.9888 84.3947 67.4208 84.0427 67.9435 83.808C68.4662 83.5627 69.0422 83.44 69.6715 83.44ZM69.5435 90.752C70.0875 90.752 70.5728 90.6293 70.9995 90.384C71.4368 90.128 71.7782 89.776 72.0235 89.328C72.2795 88.8693 72.4075 88.3467 72.4075 87.76C72.4075 87.1733 72.2795 86.656 72.0235 86.208C71.7782 85.7493 71.4368 85.3973 70.9995 85.152C70.5728 84.9067 70.0875 84.784 69.5435 84.784C69.0102 84.784 68.5248 84.912 68.0875 85.168C67.6608 85.4133 67.3195 85.76 67.0635 86.208C66.8182 86.656 66.6955 87.1733 66.6955 87.76C66.6955 88.3467 66.8182 88.8693 67.0635 89.328C67.3088 89.776 67.6502 90.128 68.0875 90.384C68.5248 90.6293 69.0102 90.752 69.5435 90.752ZM79.137 83.44C80.3103 83.44 81.2063 83.728 81.825 84.304C82.4543 84.88 82.769 85.7387 82.769 86.88V92H81.313V90.88C81.057 91.2747 80.689 91.5787 80.209 91.792C79.7397 91.9947 79.1797 92.096 78.529 92.096C77.5797 92.096 76.817 91.8667 76.241 91.408C75.6757 90.9493 75.393 90.3467 75.393 89.6C75.393 88.8533 75.665 88.256 76.209 87.808C76.753 87.3493 77.617 87.12 78.801 87.12H81.233V86.816C81.233 86.1547 81.041 85.648 80.657 85.296C80.273 84.944 79.7077 84.768 78.961 84.768C78.4597 84.768 77.969 84.8533 77.489 85.024C77.009 85.184 76.6037 85.4027 76.273 85.68L75.633 84.528C76.0703 84.176 76.593 83.9093 77.201 83.728C77.809 83.536 78.4543 83.44 79.137 83.44ZM78.785 90.912C79.3717 90.912 79.8783 90.784 80.305 90.528C80.7317 90.2613 81.041 89.888 81.233 89.408V88.224H78.865C77.5637 88.224 76.913 88.6613 76.913 89.536C76.913 89.9627 77.0783 90.2987 77.409 90.544C77.7397 90.7893 78.1983 90.912 78.785 90.912ZM94.1589 90.656V93.968H92.7189V92H85.6309V93.968H84.1749V90.656H84.6229C85.1669 90.624 85.5402 90.24 85.7429 89.504C85.9455 88.768 86.0842 87.728 86.1589 86.384L86.2869 83.52H92.8629V90.656H94.1589ZM87.5669 86.496C87.5242 87.5627 87.4335 88.448 87.2949 89.152C87.1669 89.8453 86.9269 90.3467 86.5749 90.656H91.3269V84.864H87.6469L87.5669 86.496ZM103.728 83.52L99.6159 92.848C99.2532 93.712 98.8265 94.32 98.3359 94.672C97.8559 95.024 97.2745 95.2 96.5919 95.2C96.1759 95.2 95.7705 95.1307 95.3759 94.992C94.9919 94.864 94.6719 94.672 94.4159 94.416L95.0719 93.264C95.5092 93.68 96.0159 93.888 96.5919 93.888C96.9652 93.888 97.2745 93.7867 97.5199 93.584C97.7759 93.392 98.0052 93.056 98.2079 92.576L98.4799 91.984L94.7359 83.52H96.3359L99.2959 90.304L102.224 83.52H103.728ZM112.73 87.808C112.73 87.9253 112.719 88.08 112.698 88.272H105.818C105.914 89.0187 106.239 89.6213 106.794 90.08C107.359 90.528 108.058 90.752 108.89 90.752C109.903 90.752 110.719 90.4107 111.338 89.728L112.186 90.72C111.802 91.168 111.322 91.5093 110.746 91.744C110.181 91.9787 109.546 92.096 108.842 92.096C107.946 92.096 107.151 91.9147 106.458 91.552C105.765 91.1787 105.226 90.6613 104.842 90C104.469 89.3387 104.282 88.592 104.282 87.76C104.282 86.9387 104.463 86.1973 104.826 85.536C105.199 84.8747 105.706 84.3627 106.346 84C106.997 83.6267 107.727 83.44 108.538 83.44C109.349 83.44 110.069 83.6267 110.698 84C111.338 84.3627 111.834 84.8747 112.186 85.536C112.549 86.1973 112.73 86.9547 112.73 87.808ZM108.538 84.736C107.802 84.736 107.183 84.96 106.682 85.408C106.191 85.856 105.903 86.4427 105.818 87.168H111.258C111.173 86.4533 110.879 85.872 110.378 85.424C109.887 84.9653 109.274 84.736 108.538 84.736ZM121.074 84.864H117.97V92H116.434V84.864H113.33V83.52H121.074V84.864ZM131.437 83.44C132.258 83.44 132.994 83.6213 133.645 83.984C134.296 84.3467 134.802 84.8533 135.165 85.504C135.538 86.1547 135.725 86.9067 135.725 87.76C135.725 88.6133 135.538 89.3707 135.165 90.032C134.802 90.6827 134.296 91.1893 133.645 91.552C132.994 91.9147 132.258 92.096 131.437 92.096C130.829 92.096 130.269 91.9787 129.757 91.744C129.256 91.5093 128.829 91.168 128.477 90.72V95.104H126.941V83.52H128.413V84.864C128.754 84.3947 129.186 84.0427 129.709 83.808C130.232 83.5627 130.808 83.44 131.437 83.44ZM131.309 90.752C131.853 90.752 132.338 90.6293 132.765 90.384C133.202 90.128 133.544 89.776 133.789 89.328C134.045 88.8693 134.173 88.3467 134.173 87.76C134.173 87.1733 134.045 86.656 133.789 86.208C133.544 85.7493 133.202 85.3973 132.765 85.152C132.338 84.9067 131.853 84.784 131.309 84.784C130.776 84.784 130.29 84.912 129.853 85.168C129.426 85.4133 129.085 85.76 128.829 86.208C128.584 86.656 128.461 87.1733 128.461 87.76C128.461 88.3467 128.584 88.8693 128.829 89.328C129.074 89.776 129.416 90.128 129.853 90.384C130.29 90.6293 130.776 90.752 131.309 90.752ZM145.621 87.808C145.621 87.9253 145.61 88.08 145.589 88.272H138.709C138.805 89.0187 139.13 89.6213 139.685 90.08C140.25 90.528 140.949 90.752 141.781 90.752C142.794 90.752 143.61 90.4107 144.229 89.728L145.077 90.72C144.693 91.168 144.213 91.5093 143.637 91.744C143.071 91.9787 142.437 92.096 141.733 92.096C140.837 92.096 140.042 91.9147 139.349 91.552C138.655 91.1787 138.117 90.6613 137.733 90C137.359 89.3387 137.173 88.592 137.173 87.76C137.173 86.9387 137.354 86.1973 137.717 85.536C138.09 84.8747 138.597 84.3627 139.237 84C139.887 83.6267 140.618 83.44 141.429 83.44C142.239 83.44 142.959 83.6267 143.589 84C144.229 84.3627 144.725 84.8747 145.077 85.536C145.439 86.1973 145.621 86.9547 145.621 87.808ZM141.429 84.736C140.693 84.736 140.074 84.96 139.573 85.408C139.082 85.856 138.794 86.4427 138.709 87.168H144.149C144.063 86.4533 143.77 85.872 143.269 85.424C142.778 84.9653 142.165 84.736 141.429 84.736ZM152.408 87.584C152.973 87.7333 153.411 87.9733 153.72 88.304C154.029 88.6347 154.184 89.0453 154.184 89.536C154.184 90.0373 154.013 90.4853 153.672 90.88C153.331 91.264 152.856 91.568 152.248 91.792C151.651 92.0053 150.979 92.112 150.232 92.112C149.603 92.112 148.984 92.032 148.376 91.872C147.779 91.7013 147.245 91.4613 146.776 91.152L147.24 89.984C147.645 90.24 148.109 90.4427 148.632 90.592C149.155 90.7307 149.683 90.8 150.216 90.8C150.941 90.8 151.517 90.6773 151.944 90.432C152.381 90.176 152.6 89.8347 152.6 89.408C152.6 89.0133 152.424 88.7093 152.072 88.496C151.731 88.2827 151.245 88.176 150.616 88.176H149.064V87.072H150.504C151.08 87.072 151.533 86.9707 151.864 86.768C152.195 86.5653 152.36 86.288 152.36 85.936C152.36 85.552 152.163 85.2533 151.768 85.04C151.384 84.8267 150.861 84.72 150.2 84.72C149.357 84.72 148.467 84.9387 147.528 85.376L147.112 84.192C148.147 83.6693 149.229 83.408 150.36 83.408C151.043 83.408 151.656 83.504 152.2 83.696C152.744 83.888 153.171 84.16 153.48 84.512C153.789 84.864 153.944 85.264 153.944 85.712C153.944 86.128 153.805 86.5013 153.528 86.832C153.251 87.1627 152.877 87.4133 152.408 87.584ZM164.087 83.52L159.975 92.848C159.613 93.712 159.186 94.32 158.695 94.672C158.215 95.024 157.634 95.2 156.951 95.2C156.535 95.2 156.13 95.1307 155.735 94.992C155.351 94.864 155.031 94.672 154.775 94.416L155.431 93.264C155.869 93.68 156.375 93.888 156.951 93.888C157.325 93.888 157.634 93.7867 157.879 93.584C158.135 93.392 158.365 93.056 158.567 92.576L158.839 91.984L155.095 83.52H156.695L159.655 90.304L162.583 83.52H164.087ZM172.487 83.52V92H170.951V84.864H167.303L167.207 86.752C167.153 87.8933 167.052 88.848 166.903 89.616C166.753 90.3733 166.508 90.9813 166.167 91.44C165.825 91.8987 165.351 92.128 164.743 92.128C164.465 92.128 164.151 92.08 163.799 91.984L163.895 90.688C164.033 90.72 164.161 90.736 164.279 90.736C164.705 90.736 165.025 90.5493 165.239 90.176C165.452 89.8027 165.591 89.36 165.655 88.848C165.719 88.336 165.777 87.6053 165.831 86.656L165.975 83.52H172.487ZM179.377 86.4C180.454 86.4107 181.275 86.656 181.841 87.136C182.406 87.616 182.689 88.2933 182.689 89.168C182.689 90.0853 182.379 90.7947 181.761 91.296C181.153 91.7867 180.278 92.0267 179.137 92.016L175.457 92V83.52H176.993V86.384L179.377 86.4ZM179.009 90.848C179.702 90.8587 180.225 90.72 180.577 90.432C180.939 90.144 181.121 89.7173 181.121 89.152C181.121 88.5973 180.945 88.192 180.593 87.936C180.251 87.68 179.723 87.5467 179.009 87.536L176.993 87.504V90.832L179.009 90.848ZM190.152 84.864H187.048V92H185.512V84.864H182.408V83.52H190.152V84.864ZM194.746 83.44C195.92 83.44 196.816 83.728 197.434 84.304C198.064 84.88 198.378 85.7387 198.378 86.88V92H196.922V90.88C196.666 91.2747 196.298 91.5787 195.818 91.792C195.349 91.9947 194.789 92.096 194.138 92.096C193.189 92.096 192.426 91.8667 191.85 91.408C191.285 90.9493 191.002 90.3467 191.002 89.6C191.002 88.8533 191.274 88.256 191.818 87.808C192.362 87.3493 193.226 87.12 194.41 87.12H196.842V86.816C196.842 86.1547 196.65 85.648 196.266 85.296C195.882 84.944 195.317 84.768 194.57 84.768C194.069 84.768 193.578 84.8533 193.098 85.024C192.618 85.184 192.213 85.4027 191.882 85.68L191.242 84.528C191.68 84.176 192.202 83.9093 192.81 83.728C193.418 83.536 194.064 83.44 194.746 83.44ZM194.394 90.912C194.981 90.912 195.488 90.784 195.914 90.528C196.341 90.2613 196.65 89.888 196.842 89.408V88.224H194.474C193.173 88.224 192.522 88.6613 192.522 89.536C192.522 89.9627 192.688 90.2987 193.018 90.544C193.349 90.7893 193.808 90.912 194.394 90.912ZM207.464 84.864H204.36V92H202.824V84.864H199.72V83.52H207.464V84.864ZM27.8518 103.52V112H26.3158V104.864H21.5318V112H19.9958V103.52H27.8518ZM35.3199 103.44C36.1413 103.44 36.8773 103.621 37.5279 103.984C38.1786 104.347 38.6853 104.853 39.0479 105.504C39.4213 106.155 39.6079 106.907 39.6079 107.76C39.6079 108.613 39.4213 109.371 39.0479 110.032C38.6853 110.683 38.1786 111.189 37.5279 111.552C36.8773 111.915 36.1413 112.096 35.3199 112.096C34.7119 112.096 34.1519 111.979 33.6399 111.744C33.1386 111.509 32.7119 111.168 32.3599 110.72V115.104H30.8239V103.52H32.2959V104.864C32.6373 104.395 33.0693 104.043 33.5919 103.808C34.1146 103.563 34.6906 103.44 35.3199 103.44ZM35.1919 110.752C35.7359 110.752 36.2213 110.629 36.6479 110.384C37.0853 110.128 37.4266 109.776 37.6719 109.328C37.9279 108.869 38.0559 108.347 38.0559 107.76C38.0559 107.173 37.9279 106.656 37.6719 106.208C37.4266 105.749 37.0853 105.397 36.6479 105.152C36.2213 104.907 35.7359 104.784 35.1919 104.784C34.6586 104.784 34.1733 104.912 33.7359 105.168C33.3093 105.413 32.9679 105.76 32.7119 106.208C32.4666 106.656 32.3439 107.173 32.3439 107.76C32.3439 108.347 32.4666 108.869 32.7119 109.328C32.9573 109.776 33.2986 110.128 33.7359 110.384C34.1733 110.629 34.6586 110.752 35.1919 110.752ZM45.4716 112.096C44.6289 112.096 43.8716 111.909 43.1996 111.536C42.5276 111.163 41.9996 110.651 41.6156 110C41.2422 109.339 41.0556 108.592 41.0556 107.76C41.0556 106.928 41.2422 106.187 41.6156 105.536C41.9996 104.875 42.5276 104.363 43.1996 104C43.8716 103.627 44.6289 103.44 45.4716 103.44C46.3142 103.44 47.0662 103.627 47.7276 104C48.3996 104.363 48.9222 104.875 49.2956 105.536C49.6796 106.187 49.8716 106.928 49.8716 107.76C49.8716 108.592 49.6796 109.339 49.2956 110C48.9222 110.651 48.3996 111.163 47.7276 111.536C47.0662 111.909 46.3142 112.096 45.4716 112.096ZM45.4716 110.752C46.0156 110.752 46.5009 110.629 46.9276 110.384C47.3649 110.128 47.7062 109.776 47.9516 109.328C48.1969 108.869 48.3196 108.347 48.3196 107.76C48.3196 107.173 48.1969 106.656 47.9516 106.208C47.7062 105.749 47.3649 105.397 46.9276 105.152C46.5009 104.907 46.0156 104.784 45.4716 104.784C44.9276 104.784 44.4369 104.907 43.9996 105.152C43.5729 105.397 43.2316 105.749 42.9756 106.208C42.7302 106.656 42.6076 107.173 42.6076 107.76C42.6076 108.347 42.7302 108.869 42.9756 109.328C43.2316 109.776 43.5729 110.128 43.9996 110.384C44.4369 110.629 44.9276 110.752 45.4716 110.752ZM60.6511 110.656V113.968H59.2111V112H52.1231V113.968H50.6671V110.656H51.1151C51.6591 110.624 52.0324 110.24 52.2351 109.504C52.4377 108.768 52.5764 107.728 52.6511 106.384L52.7791 103.52H59.3551V110.656H60.6511ZM54.0591 106.496C54.0164 107.563 53.9257 108.448 53.7871 109.152C53.6591 109.845 53.4191 110.347 53.0671 110.656H57.8191V104.864H54.1391L54.0591 106.496ZM70.3161 107.808C70.3161 107.925 70.3054 108.08 70.2841 108.272H63.4041C63.5001 109.019 63.8254 109.621 64.3801 110.08C64.9454 110.528 65.6441 110.752 66.4761 110.752C67.4894 110.752 68.3054 110.411 68.9241 109.728L69.7721 110.72C69.3881 111.168 68.9081 111.509 68.3321 111.744C67.7667 111.979 67.1321 112.096 66.4281 112.096C65.5321 112.096 64.7374 111.915 64.0441 111.552C63.3507 111.179 62.8121 110.661 62.4281 110C62.0547 109.339 61.8681 108.592 61.8681 107.76C61.8681 106.939 62.0494 106.197 62.4121 105.536C62.7854 104.875 63.2921 104.363 63.9321 104C64.5827 103.627 65.3134 103.44 66.1241 103.44C66.9347 103.44 67.6547 103.627 68.2841 104C68.9241 104.363 69.4201 104.875 69.7721 105.536C70.1347 106.197 70.3161 106.955 70.3161 107.808ZM66.1241 104.736C65.3881 104.736 64.7694 104.96 64.2681 105.408C63.7774 105.856 63.4894 106.443 63.4041 107.168H68.8441C68.7587 106.453 68.4654 105.872 67.9641 105.424C67.4734 104.965 66.8601 104.736 66.1241 104.736ZM79.8383 103.52V112H78.3023V104.864H74.6543L74.5583 106.752C74.505 107.893 74.4036 108.848 74.2543 109.616C74.105 110.373 73.8596 110.981 73.5183 111.44C73.177 111.899 72.7023 112.128 72.0943 112.128C71.817 112.128 71.5023 112.08 71.1503 111.984L71.2463 110.688C71.385 110.72 71.513 110.736 71.6303 110.736C72.057 110.736 72.377 110.549 72.5903 110.176C72.8036 109.803 72.9423 109.36 73.0063 108.848C73.0703 108.336 73.129 107.605 73.1823 106.656L73.3263 103.52H79.8383ZM85.8323 103.44C87.0056 103.44 87.9016 103.728 88.5203 104.304C89.1496 104.88 89.4643 105.739 89.4643 106.88V112H88.0083V110.88C87.7523 111.275 87.3843 111.579 86.9043 111.792C86.435 111.995 85.875 112.096 85.2243 112.096C84.275 112.096 83.5123 111.867 82.9363 111.408C82.371 110.949 82.0883 110.347 82.0883 109.6C82.0883 108.853 82.3603 108.256 82.9043 107.808C83.4483 107.349 84.3123 107.12 85.4963 107.12H87.9283V106.816C87.9283 106.155 87.7363 105.648 87.3523 105.296C86.9683 104.944 86.403 104.768 85.6563 104.768C85.155 104.768 84.6643 104.853 84.1843 105.024C83.7043 105.184 83.299 105.403 82.9683 105.68L82.3283 104.528C82.7656 104.176 83.2883 103.909 83.8963 103.728C84.5043 103.536 85.1496 103.44 85.8323 103.44ZM85.4803 110.912C86.067 110.912 86.5736 110.784 87.0003 110.528C87.427 110.261 87.7363 109.888 87.9283 109.408V108.224H85.5603C84.259 108.224 83.6083 108.661 83.6083 109.536C83.6083 109.963 83.7736 110.299 84.1043 110.544C84.435 110.789 84.8936 110.912 85.4803 110.912ZM92.2302 103.52H93.7662V107.12H98.5982V103.52H100.134V112H98.5982V108.448H93.7662V112H92.2302V103.52ZM103.121 103.52H104.657V107.12H109.489V103.52H111.025V112H109.489V108.448H104.657V112H103.121V103.52ZM117.643 112.096C116.801 112.096 116.043 111.909 115.371 111.536C114.699 111.163 114.171 110.651 113.787 110C113.414 109.339 113.227 108.592 113.227 107.76C113.227 106.928 113.414 106.187 113.787 105.536C114.171 104.875 114.699 104.363 115.371 104C116.043 103.627 116.801 103.44 117.643 103.44C118.486 103.44 119.238 103.627 119.899 104C120.571 104.363 121.094 104.875 121.467 105.536C121.851 106.187 122.043 106.928 122.043 107.76C122.043 108.592 121.851 109.339 121.467 110C121.094 110.651 120.571 111.163 119.899 111.536C119.238 111.909 118.486 112.096 117.643 112.096ZM117.643 110.752C118.187 110.752 118.673 110.629 119.099 110.384C119.537 110.128 119.878 109.776 120.123 109.328C120.369 108.869 120.491 108.347 120.491 107.76C120.491 107.173 120.369 106.656 120.123 106.208C119.878 105.749 119.537 105.397 119.099 105.152C118.673 104.907 118.187 104.784 117.643 104.784C117.099 104.784 116.609 104.907 116.171 105.152C115.745 105.397 115.403 105.749 115.147 106.208C114.902 106.656 114.779 107.173 114.779 107.76C114.779 108.347 114.902 108.869 115.147 109.328C115.403 109.776 115.745 110.128 116.171 110.384C116.609 110.629 117.099 110.752 117.643 110.752ZM124.261 103.52H125.797V109.696L130.997 103.52H132.389V112H130.853V105.824L125.669 112H124.261V103.52ZM128.229 102.416C127.44 102.416 126.827 102.229 126.389 101.856C125.952 101.472 125.728 100.923 125.717 100.208H126.757C126.768 100.603 126.901 100.923 127.157 101.168C127.424 101.403 127.776 101.52 128.213 101.52C128.651 101.52 129.003 101.403 129.269 101.168C129.536 100.923 129.675 100.603 129.685 100.208H130.757C130.747 100.923 130.517 101.472 130.069 101.856C129.621 102.229 129.008 102.416 128.229 102.416ZM144.164 103.44C144.985 103.44 145.721 103.621 146.372 103.984C147.022 104.347 147.529 104.853 147.892 105.504C148.265 106.155 148.452 106.907 148.452 107.76C148.452 108.613 148.265 109.371 147.892 110.032C147.529 110.683 147.022 111.189 146.372 111.552C145.721 111.915 144.985 112.096 144.164 112.096C143.556 112.096 142.996 111.979 142.484 111.744C141.982 111.509 141.556 111.168 141.204 110.72V115.104H139.668V103.52H141.14V104.864C141.481 104.395 141.913 104.043 142.436 103.808C142.958 103.563 143.534 103.44 144.164 103.44ZM144.036 110.752C144.58 110.752 145.065 110.629 145.492 110.384C145.929 110.128 146.27 109.776 146.516 109.328C146.772 108.869 146.9 108.347 146.9 107.76C146.9 107.173 146.772 106.656 146.516 106.208C146.27 105.749 145.929 105.397 145.492 105.152C145.065 104.907 144.58 104.784 144.036 104.784C143.502 104.784 143.017 104.912 142.58 105.168C142.153 105.413 141.812 105.76 141.556 106.208C141.31 106.656 141.188 107.173 141.188 107.76C141.188 108.347 141.31 108.869 141.556 109.328C141.801 109.776 142.142 110.128 142.58 110.384C143.017 110.629 143.502 110.752 144.036 110.752ZM153.629 103.44C154.803 103.44 155.699 103.728 156.317 104.304C156.947 104.88 157.261 105.739 157.261 106.88V112H155.805V110.88C155.549 111.275 155.181 111.579 154.701 111.792C154.232 111.995 153.672 112.096 153.021 112.096C152.072 112.096 151.309 111.867 150.733 111.408C150.168 110.949 149.885 110.347 149.885 109.6C149.885 108.853 150.157 108.256 150.701 107.808C151.245 107.349 152.109 107.12 153.293 107.12H155.725V106.816C155.725 106.155 155.533 105.648 155.149 105.296C154.765 104.944 154.2 104.768 153.453 104.768C152.952 104.768 152.461 104.853 151.981 105.024C151.501 105.184 151.096 105.403 150.765 105.68L150.125 104.528C150.563 104.176 151.085 103.909 151.693 103.728C152.301 103.536 152.947 103.44 153.629 103.44ZM153.277 110.912C153.864 110.912 154.371 110.784 154.797 110.528C155.224 110.261 155.533 109.888 155.725 109.408V108.224H153.357C152.056 108.224 151.405 108.661 151.405 109.536C151.405 109.963 151.571 110.299 151.901 110.544C152.232 110.789 152.691 110.912 153.277 110.912ZM164.347 103.808C165.136 103.808 165.84 103.984 166.459 104.336C167.078 104.688 167.558 105.179 167.899 105.808C168.251 106.427 168.427 107.136 168.427 107.936C168.427 108.757 168.24 109.488 167.867 110.128C167.504 110.757 166.987 111.248 166.315 111.6C165.654 111.952 164.896 112.128 164.043 112.128C162.603 112.128 161.488 111.637 160.699 110.656C159.92 109.664 159.531 108.272 159.531 106.48C159.531 104.741 159.888 103.381 160.603 102.4C161.318 101.408 162.411 100.752 163.883 100.432L167.755 99.568L167.979 100.976L164.411 101.744C163.302 101.989 162.475 102.405 161.931 102.992C161.387 103.579 161.078 104.421 161.003 105.52C161.366 104.976 161.835 104.555 162.411 104.256C162.987 103.957 163.632 103.808 164.347 103.808ZM164.075 110.848C164.619 110.848 165.099 110.725 165.515 110.48C165.942 110.235 166.272 109.899 166.507 109.472C166.742 109.035 166.859 108.539 166.859 107.984C166.859 107.141 166.603 106.464 166.091 105.952C165.579 105.44 164.907 105.184 164.075 105.184C163.243 105.184 162.566 105.44 162.043 105.952C161.531 106.464 161.275 107.141 161.275 107.984C161.275 108.539 161.392 109.035 161.627 109.472C161.872 109.899 162.208 110.235 162.635 110.48C163.062 110.725 163.542 110.848 164.075 110.848ZM174.253 112.096C173.41 112.096 172.653 111.909 171.981 111.536C171.309 111.163 170.781 110.651 170.397 110C170.023 109.339 169.837 108.592 169.837 107.76C169.837 106.928 170.023 106.187 170.397 105.536C170.781 104.875 171.309 104.363 171.981 104C172.653 103.627 173.41 103.44 174.253 103.44C175.095 103.44 175.847 103.627 176.509 104C177.181 104.363 177.703 104.875 178.077 105.536C178.461 106.187 178.653 106.928 178.653 107.76C178.653 108.592 178.461 109.339 178.077 110C177.703 110.651 177.181 111.163 176.509 111.536C175.847 111.909 175.095 112.096 174.253 112.096ZM174.253 110.752C174.797 110.752 175.282 110.629 175.709 110.384C176.146 110.128 176.487 109.776 176.733 109.328C176.978 108.869 177.101 108.347 177.101 107.76C177.101 107.173 176.978 106.656 176.733 106.208C176.487 105.749 176.146 105.397 175.709 105.152C175.282 104.907 174.797 104.784 174.253 104.784C173.709 104.784 173.218 104.907 172.781 105.152C172.354 105.397 172.013 105.749 171.757 106.208C171.511 106.656 171.389 107.173 171.389 107.76C171.389 108.347 171.511 108.869 171.757 109.328C172.013 109.776 172.354 110.128 172.781 110.384C173.218 110.629 173.709 110.752 174.253 110.752ZM186.878 104.864H183.774V112H182.238V104.864H179.134V103.52H186.878V104.864ZM192.273 106.4C193.34 106.411 194.156 106.656 194.721 107.136C195.286 107.616 195.569 108.293 195.569 109.168C195.569 110.085 195.26 110.795 194.641 111.296C194.033 111.787 193.158 112.027 192.017 112.016L188.449 112V103.52H189.985V106.384L192.273 106.4ZM196.833 103.52H198.369V112H196.833V103.52ZM191.905 110.848C192.598 110.859 193.121 110.72 193.473 110.432C193.836 110.144 194.017 109.717 194.017 109.152C194.017 108.597 193.841 108.192 193.489 107.936C193.137 107.68 192.609 107.547 191.905 107.536L189.985 107.504V110.832L191.905 110.848ZM201.691 112.096C201.393 112.096 201.137 111.995 200.923 111.792C200.71 111.579 200.603 111.312 200.603 110.992C200.603 110.683 200.71 110.427 200.923 110.224C201.137 110.011 201.393 109.904 201.691 109.904C201.99 109.904 202.241 110.005 202.443 110.208C202.646 110.411 202.747 110.672 202.747 110.992C202.747 111.312 202.641 111.579 202.427 111.792C202.225 111.995 201.979 112.096 201.691 112.096Z" fill="#585858"/>
</svg>
