<svg width="222" height="44" viewBox="0 0 222 44" fill="none" xmlns="http://www.w3.org/2000/svg">
<path d="M7.11281 2C8.40615 2 9.53281 2.21333 10.4928 2.64C11.4528 3.06667 12.1928 3.68 12.7128 4.48C13.2328 5.28 13.4928 6.21333 13.4928 7.28C13.4928 8.34667 13.2328 9.28 12.7128 10.08C12.1928 10.88 11.4528 11.4933 10.4928 11.92C9.53281 12.3467 8.40615 12.56 7.11281 12.56H5.09281V16H0.372813V2H7.11281ZM6.81281 8.92C7.45281 8.92 7.93281 8.78 8.25281 8.5C8.57281 8.20667 8.73281 7.8 8.73281 7.28C8.73281 6.76 8.57281 6.36 8.25281 6.08C7.93281 5.78667 7.45281 5.64 6.81281 5.64H5.09281V8.92H6.81281ZM19.3059 4.86C21.2259 4.86 22.6926 5.29333 23.7059 6.16C24.7193 7.01333 25.2259 8.33333 25.2259 10.12V16H21.0259V14.56C20.5059 15.6533 19.4726 16.2 17.9259 16.2C17.0593 16.2 16.3193 16.0533 15.7059 15.76C15.1059 15.4533 14.6459 15.0467 14.3259 14.54C14.0193 14.02 13.8659 13.44 13.8659 12.8C13.8659 11.72 14.2793 10.9 15.1059 10.34C15.9326 9.78 17.1859 9.5 18.8659 9.5H20.6859C20.5393 8.64667 19.8526 8.22 18.6259 8.22C18.1326 8.22 17.6326 8.3 17.1259 8.46C16.6193 8.60667 16.1859 8.81333 15.8259 9.08L14.3859 6.1C15.0126 5.71333 15.7659 5.41333 16.6459 5.2C17.5393 4.97333 18.4259 4.86 19.3059 4.86ZM19.2859 13.48C19.6059 13.48 19.8926 13.3933 20.1459 13.22C20.3993 13.0467 20.5859 12.7867 20.7059 12.44V11.68H19.5859C18.6659 11.68 18.2059 11.9867 18.2059 12.6C18.2059 12.8533 18.2993 13.0667 18.4859 13.24C18.6859 13.4 18.9526 13.48 19.2859 13.48ZM35.4278 10.32C36.0145 10.5333 36.4678 10.8467 36.7878 11.26C37.1211 11.66 37.2878 12.1333 37.2878 12.68C37.2878 13.44 37.0211 14.0933 36.4878 14.64C35.9545 15.1733 35.2345 15.58 34.3278 15.86C33.4211 16.1267 32.4145 16.26 31.3078 16.26C29.4278 16.26 27.7211 15.98 26.1878 15.42L27.3278 12.44C28.4611 12.8533 29.7478 13.06 31.1878 13.06C31.6678 13.06 32.0478 13 32.3278 12.88C32.6078 12.76 32.7478 12.5733 32.7478 12.32C32.7478 12.1067 32.6811 11.96 32.5478 11.88C32.4278 11.7867 32.2145 11.74 31.9078 11.74H29.4078V9.22H31.4878C31.8211 9.22 32.0611 9.17333 32.2078 9.08C32.3678 8.98667 32.4478 8.83333 32.4478 8.62C32.4478 8.40667 32.3411 8.24667 32.1278 8.14C31.9145 8.03333 31.5478 7.98 31.0278 7.98C30.0278 7.98 28.8611 8.20667 27.5278 8.66L26.5078 5.8C28.2011 5.14667 29.8211 4.82 31.3678 4.82C33.0078 4.82 34.3545 5.09333 35.4078 5.64C36.4611 6.17333 36.9878 6.95333 36.9878 7.98C36.9878 8.46 36.8478 8.90667 36.5678 9.32C36.2878 9.73333 35.9078 10.0667 35.4278 10.32ZM46.028 4.86C46.988 4.86 47.868 5.09333 48.668 5.56C49.4813 6.01333 50.1213 6.67333 50.588 7.54C51.068 8.40667 51.308 9.40667 51.308 10.54C51.308 11.6733 51.068 12.6733 50.588 13.54C50.1213 14.3933 49.4813 15.0533 48.668 15.52C47.868 15.9733 46.988 16.2 46.028 16.2C44.8146 16.2 43.888 15.8867 43.248 15.26V19.88H38.728V5.06H43.028V5.96C43.6813 5.22667 44.6813 4.86 46.028 4.86ZM44.948 12.68C45.468 12.68 45.8946 12.4933 46.228 12.12C46.5613 11.7467 46.728 11.22 46.728 10.54C46.728 9.86 46.5613 9.33333 46.228 8.96C45.8946 8.57333 45.468 8.38 44.948 8.38C44.428 8.38 44.0013 8.57333 43.668 8.96C43.3346 9.33333 43.168 9.86 43.168 10.54C43.168 11.22 43.3346 11.7467 43.668 12.12C44.0013 12.4933 44.428 12.68 44.948 12.68ZM57.1575 4.86C59.0775 4.86 60.5442 5.29333 61.5575 6.16C62.5708 7.01333 63.0775 8.33333 63.0775 10.12V16H58.8775V14.56C58.3575 15.6533 57.3242 16.2 55.7775 16.2C54.9108 16.2 54.1708 16.0533 53.5575 15.76C52.9575 15.4533 52.4975 15.0467 52.1775 14.54C51.8708 14.02 51.7175 13.44 51.7175 12.8C51.7175 11.72 52.1308 10.9 52.9575 10.34C53.7842 9.78 55.0375 9.5 56.7175 9.5H58.5375C58.3908 8.64667 57.7042 8.22 56.4775 8.22C55.9842 8.22 55.4842 8.3 54.9775 8.46C54.4708 8.60667 54.0375 8.81333 53.6775 9.08L52.2375 6.1C52.8642 5.71333 53.6175 5.41333 54.4975 5.2C55.3908 4.97333 56.2775 4.86 57.1575 4.86ZM57.1375 13.48C57.4575 13.48 57.7442 13.3933 57.9975 13.22C58.2508 13.0467 58.4375 12.7867 58.5575 12.44V11.68H57.4375C56.5175 11.68 56.0575 11.9867 56.0575 12.6C56.0575 12.8533 56.1508 13.0667 56.3375 13.24C56.5375 13.4 56.8042 13.48 57.1375 13.48ZM72.1394 6.28C73.7527 6.28 75.006 6.71333 75.8994 7.58C76.7927 8.44667 77.2394 9.64 77.2394 11.16C77.2394 12.1867 76.9594 13.0933 76.3994 13.88C75.8527 14.6533 75.0994 15.2533 74.1394 15.68C73.1794 16.1067 72.106 16.32 70.9194 16.32C68.9727 16.32 67.3994 15.74 66.1994 14.58C65.0127 13.42 64.4194 11.6333 64.4194 9.22C64.4194 4.67333 66.446 2.03333 70.4994 1.3L75.9394 0.319999L76.5394 4.02L71.9394 4.84C70.8594 5.02667 70.0794 5.31333 69.5994 5.7C69.1327 6.08667 68.846 6.65333 68.7394 7.4C69.6727 6.65333 70.806 6.28 72.1394 6.28ZM70.9194 12.98C71.466 12.98 71.886 12.8 72.1794 12.44C72.486 12.08 72.6394 11.6467 72.6394 11.14C72.6394 10.58 72.4794 10.1467 72.1594 9.84C71.8527 9.53333 71.4394 9.38 70.9194 9.38C70.386 9.38 69.9594 9.54 69.6394 9.86C69.3194 10.1667 69.1594 10.6 69.1594 11.16C69.1594 11.6933 69.3194 12.1333 69.6394 12.48C69.9727 12.8133 70.3994 12.98 70.9194 12.98ZM84.2703 16.2C83.057 16.2 81.9636 15.96 80.9903 15.48C80.0303 14.9867 79.277 14.3133 78.7303 13.46C78.1836 12.5933 77.9103 11.6133 77.9103 10.52C77.9103 9.42667 78.1836 8.45333 78.7303 7.6C79.277 6.73333 80.0303 6.06 80.9903 5.58C81.9636 5.1 83.057 4.86 84.2703 4.86C85.497 4.86 86.5903 5.1 87.5503 5.58C88.5236 6.06 89.277 6.73333 89.8103 7.6C90.357 8.45333 90.6303 9.42667 90.6303 10.52C90.6303 11.6133 90.357 12.5933 89.8103 13.46C89.277 14.3133 88.5236 14.9867 87.5503 15.48C86.5903 15.96 85.497 16.2 84.2703 16.2ZM84.2703 12.68C84.7903 12.68 85.217 12.4933 85.5503 12.12C85.8836 11.7333 86.0503 11.2 86.0503 10.52C86.0503 9.84 85.8836 9.31333 85.5503 8.94C85.217 8.56667 84.7903 8.38 84.2703 8.38C83.7503 8.38 83.3236 8.56667 82.9903 8.94C82.657 9.31333 82.4903 9.84 82.4903 10.52C82.4903 11.2 82.657 11.7333 82.9903 12.12C83.3236 12.4933 83.7503 12.68 84.2703 12.68ZM101.998 8.58H98.6581V16H94.1581V8.58H90.8181V5.06H101.998V8.58ZM108.678 12.36H107.818V16H103.298V5.06H107.818V8.9H108.798L111.198 5.06H115.958L112.438 10.3L116.178 16H110.858L108.678 12.36ZM121.65 4.86C123.57 4.86 125.036 5.29333 126.05 6.16C127.063 7.01333 127.57 8.33333 127.57 10.12V16H123.37V14.56C122.85 15.6533 121.816 16.2 120.27 16.2C119.403 16.2 118.663 16.0533 118.05 15.76C117.45 15.4533 116.99 15.0467 116.67 14.54C116.363 14.02 116.21 13.44 116.21 12.8C116.21 11.72 116.623 10.9 117.45 10.34C118.276 9.78 119.53 9.5 121.21 9.5H123.03C122.883 8.64667 122.196 8.22 120.97 8.22C120.476 8.22 119.976 8.3 119.47 8.46C118.963 8.60667 118.53 8.81333 118.17 9.08L116.73 6.1C117.356 5.71333 118.11 5.41333 118.99 5.2C119.883 4.97333 120.77 4.86 121.65 4.86ZM121.63 13.48C121.95 13.48 122.236 13.3933 122.49 13.22C122.743 13.0467 122.93 12.7867 123.05 12.44V11.68H121.93C121.01 11.68 120.55 11.9867 120.55 12.6C120.55 12.8533 120.643 13.0667 120.83 13.24C121.03 13.4 121.296 13.48 121.63 13.48ZM141.148 16.2C139.908 16.2 138.794 15.96 137.808 15.48C136.834 15 136.068 14.3267 135.508 13.46C134.961 12.5933 134.688 11.6133 134.688 10.52C134.688 9.42667 134.961 8.45333 135.508 7.6C136.068 6.73333 136.834 6.06 137.808 5.58C138.794 5.1 139.908 4.86 141.148 4.86C142.481 4.86 143.621 5.14667 144.568 5.72C145.514 6.29333 146.168 7.08667 146.528 8.1L143.028 9.82C142.601 8.86 141.968 8.38 141.128 8.38C140.594 8.38 140.148 8.56667 139.788 8.94C139.441 9.31333 139.268 9.84 139.268 10.52C139.268 11.2133 139.441 11.7467 139.788 12.12C140.148 12.4933 140.594 12.68 141.128 12.68C141.968 12.68 142.601 12.2 143.028 11.24L146.528 12.96C146.168 13.9733 145.514 14.7667 144.568 15.34C143.621 15.9133 142.481 16.2 141.148 16.2ZM152.431 4.86C154.351 4.86 155.818 5.29333 156.831 6.16C157.844 7.01333 158.351 8.33333 158.351 10.12V16H154.151V14.56C153.631 15.6533 152.598 16.2 151.051 16.2C150.184 16.2 149.444 16.0533 148.831 15.76C148.231 15.4533 147.771 15.0467 147.451 14.54C147.144 14.02 146.991 13.44 146.991 12.8C146.991 11.72 147.404 10.9 148.231 10.34C149.058 9.78 150.311 9.5 151.991 9.5H153.811C153.664 8.64667 152.978 8.22 151.751 8.22C151.258 8.22 150.758 8.3 150.251 8.46C149.744 8.60667 149.311 8.81333 148.951 9.08L147.511 6.1C148.138 5.71333 148.891 5.41333 149.771 5.2C150.664 4.97333 151.551 4.86 152.431 4.86ZM152.411 13.48C152.731 13.48 153.018 13.3933 153.271 13.22C153.524 13.0467 153.711 12.7867 153.831 12.44V11.68H152.711C151.791 11.68 151.331 11.9867 151.331 12.6C151.331 12.8533 151.424 13.0667 151.611 13.24C151.811 13.4 152.078 13.48 152.411 13.48ZM160.193 5.06H164.693V10L168.473 5.06H172.633V16H168.133V11.04L164.373 16H160.193V5.06ZM166.113 4.16C164.726 4.16 163.713 3.88 163.073 3.32C162.433 2.74667 162.113 1.86 162.113 0.66H165.013C165.013 1.1 165.086 1.43333 165.233 1.66C165.393 1.87333 165.679 1.98 166.093 1.98C166.839 1.98 167.213 1.54 167.213 0.66H170.153C170.153 1.86 169.826 2.74667 169.173 3.32C168.533 3.88 167.513 4.16 166.113 4.16ZM185.104 8.58H181.764V16H177.264V8.58H173.924V5.06H185.104V8.58ZM191.653 16.2C190.44 16.2 189.346 15.96 188.373 15.48C187.413 14.9867 186.66 14.3133 186.113 13.46C185.566 12.5933 185.293 11.6133 185.293 10.52C185.293 9.42667 185.566 8.45333 186.113 7.6C186.66 6.73333 187.413 6.06 188.373 5.58C189.346 5.1 190.44 4.86 191.653 4.86C192.88 4.86 193.973 5.1 194.933 5.58C195.906 6.06 196.66 6.73333 197.193 7.6C197.74 8.45333 198.013 9.42667 198.013 10.52C198.013 11.6133 197.74 12.5933 197.193 13.46C196.66 14.3133 195.906 14.9867 194.933 15.48C193.973 15.96 192.88 16.2 191.653 16.2ZM191.653 12.68C192.173 12.68 192.6 12.4933 192.933 12.12C193.266 11.7333 193.433 11.2 193.433 10.52C193.433 9.84 193.266 9.31333 192.933 8.94C192.6 8.56667 192.173 8.38 191.653 8.38C191.133 8.38 190.706 8.56667 190.373 8.94C190.04 9.31333 189.873 9.84 189.873 10.52C189.873 11.2 190.04 11.7333 190.373 12.12C190.706 12.4933 191.133 12.68 191.653 12.68ZM208.712 10.26C209.912 10.7133 210.512 11.56 210.512 12.8C210.512 13.8 210.118 14.5867 209.332 15.16C208.545 15.72 207.392 16 205.872 16H199.412V5.06H205.552C207.018 5.06 208.158 5.31333 208.972 5.82C209.785 6.31333 210.192 7.01333 210.192 7.92C210.192 8.42667 210.065 8.88 209.812 9.28C209.558 9.68 209.192 10.0067 208.712 10.26ZM203.372 9.38H205.152C205.805 9.38 206.132 9.12 206.132 8.6C206.132 8.34667 206.052 8.16 205.892 8.04C205.745 7.92 205.498 7.86 205.152 7.86H203.372V9.38ZM205.472 13.2C206.125 13.2 206.452 12.9267 206.452 12.38C206.452 11.86 206.125 11.6 205.472 11.6H203.372V13.2H205.472ZM213.97 11.04C214.743 11.04 215.376 11.2733 215.87 11.74C216.363 12.2067 216.61 12.8267 216.61 13.6C216.61 13.9467 216.563 14.2933 216.47 14.64C216.376 14.9867 216.163 15.5133 215.83 16.22L214.43 19.2H211.63L212.63 15.82C212.216 15.62 211.896 15.3333 211.67 14.96C211.443 14.5733 211.33 14.12 211.33 13.6C211.33 12.8267 211.576 12.2067 212.07 11.74C212.563 11.2733 213.196 11.04 213.97 11.04ZM12.6342 29.06H17.1342V34L20.9142 29.06H25.0742V40H20.5742V35.04L16.8142 40H12.6342V29.06ZM36.745 32.58H31.685V40H27.185V29.06H36.745V32.58ZM45.3444 28.86C46.3044 28.86 47.1844 29.0933 47.9844 29.56C48.7977 30.0133 49.4377 30.6733 49.9044 31.54C50.3844 32.4067 50.6244 33.4067 50.6244 34.54C50.6244 35.6733 50.3844 36.6733 49.9044 37.54C49.4377 38.3933 48.7977 39.0533 47.9844 39.52C47.1844 39.9733 46.3044 40.2 45.3444 40.2C44.131 40.2 43.2044 39.8867 42.5644 39.26V43.88H38.0444V29.06H42.3444V29.96C42.9977 29.2267 43.9977 28.86 45.3444 28.86ZM44.2644 36.68C44.7844 36.68 45.211 36.4933 45.5444 36.12C45.8777 35.7467 46.0444 35.22 46.0444 34.54C46.0444 33.86 45.8777 33.3333 45.5444 32.96C45.211 32.5733 44.7844 32.38 44.2644 32.38C43.7444 32.38 43.3177 32.5733 42.9844 32.96C42.651 33.3333 42.4844 33.86 42.4844 34.54C42.4844 35.22 42.651 35.7467 42.9844 36.12C43.3177 36.4933 43.7444 36.68 44.2644 36.68ZM58.0834 29.06H62.5834V34L66.3634 29.06H70.5234V40H66.0234V35.04L62.2634 40H58.0834V29.06ZM90.3703 29.06V40H85.8703V32.58H83.1303V40H78.6303V29.06H90.3703ZM99.7975 28.86C100.758 28.86 101.638 29.0933 102.438 29.56C103.251 30.0133 103.891 30.6733 104.358 31.54C104.838 32.4067 105.078 33.4067 105.078 34.54C105.078 35.6733 104.838 36.6733 104.358 37.54C103.891 38.3933 103.251 39.0533 102.438 39.52C101.638 39.9733 100.758 40.2 99.7975 40.2C98.5842 40.2 97.6575 39.8867 97.0175 39.26V43.88H92.4975V29.06H96.7975V29.96C97.4508 29.2267 98.4508 28.86 99.7975 28.86ZM98.7175 36.68C99.2375 36.68 99.6642 36.4933 99.9975 36.12C100.331 35.7467 100.498 35.22 100.498 34.54C100.498 33.86 100.331 33.3333 99.9975 32.96C99.6642 32.5733 99.2375 32.38 98.7175 32.38C98.1975 32.38 97.7708 32.5733 97.4375 32.96C97.1042 33.3333 96.9375 33.86 96.9375 34.54C96.9375 35.22 97.1042 35.7467 97.4375 36.12C97.7708 36.4933 98.1975 36.68 98.7175 36.68ZM106.54 29.06H111.04V34L114.82 29.06H118.98V40H114.48V35.04L110.72 40H106.54V29.06ZM132.891 29.06V40H128.371V32.58H126.311L126.251 34C126.198 35.4133 126.051 36.5733 125.811 37.48C125.571 38.3867 125.171 39.0867 124.611 39.58C124.065 40.06 123.311 40.3 122.351 40.3C121.751 40.3 121.051 40.2 120.251 40L120.431 36.34C120.645 36.3667 120.798 36.38 120.891 36.38C121.438 36.38 121.798 36.1867 121.971 35.8C122.145 35.4 122.251 34.74 122.291 33.82L122.451 29.06H132.891ZM140.657 40.2C139.444 40.2 138.35 39.96 137.377 39.48C136.417 38.9867 135.664 38.3133 135.117 37.46C134.57 36.5933 134.297 35.6133 134.297 34.52C134.297 33.4267 134.57 32.4533 135.117 31.6C135.664 30.7333 136.417 30.06 137.377 29.58C138.35 29.1 139.444 28.86 140.657 28.86C141.884 28.86 142.977 29.1 143.937 29.58C144.91 30.06 145.664 30.7333 146.197 31.6C146.744 32.4533 147.017 33.4267 147.017 34.52C147.017 35.6133 146.744 36.5933 146.197 37.46C145.664 38.3133 144.91 38.9867 143.937 39.48C142.977 39.96 141.884 40.2 140.657 40.2ZM140.657 36.68C141.177 36.68 141.604 36.4933 141.937 36.12C142.27 35.7333 142.437 35.2 142.437 34.52C142.437 33.84 142.27 33.3133 141.937 32.94C141.604 32.5667 141.177 32.38 140.657 32.38C140.137 32.38 139.71 32.5667 139.377 32.94C139.044 33.3133 138.877 33.84 138.877 34.52C138.877 35.2 139.044 35.7333 139.377 36.12C139.71 36.4933 140.137 36.68 140.657 36.68ZM159.883 36.36H159.203V40H154.743V36.36H154.023L152.363 40H147.042L150.183 34.36L147.263 29.06H152.023L153.923 32.9H154.743V29.06H159.203V32.9H159.983L161.903 29.06H166.663L163.743 34.36L166.883 40H161.543L159.883 36.36ZM179.134 34.52C179.134 34.5867 179.114 34.94 179.074 35.58H171.474C171.634 35.9933 171.901 36.3133 172.274 36.54C172.648 36.7533 173.114 36.86 173.674 36.86C174.154 36.86 174.554 36.8 174.874 36.68C175.208 36.56 175.568 36.3533 175.954 36.06L178.314 38.44C177.248 39.6133 175.654 40.2 173.534 40.2C172.214 40.2 171.054 39.96 170.054 39.48C169.054 38.9867 168.281 38.3067 167.734 37.44C167.188 36.5733 166.914 35.6 166.914 34.52C166.914 33.4267 167.181 32.4533 167.714 31.6C168.261 30.7333 169.001 30.06 169.934 29.58C170.881 29.1 171.941 28.86 173.114 28.86C174.221 28.86 175.228 29.08 176.134 29.52C177.054 29.96 177.781 30.6067 178.314 31.46C178.861 32.3133 179.134 33.3333 179.134 34.52ZM173.154 31.94C172.688 31.94 172.301 32.0667 171.994 32.32C171.688 32.5733 171.488 32.9333 171.394 33.4H174.914C174.821 32.9467 174.621 32.5933 174.314 32.34C174.008 32.0733 173.621 31.94 173.154 31.94ZM180.759 29.06H185.259V32.9H188.339V29.06H192.839V40H188.339V36.44H185.259V40H180.759V29.06ZM194.958 29.06H199.458V34L203.238 29.06H207.398V40H202.898V35.04L199.138 40H194.958V29.06ZM209.509 29.06H214.009V34L217.789 29.06H221.949V40H217.449V35.04L213.689 40H209.509V29.06ZM215.429 28.16C214.043 28.16 213.029 27.88 212.389 27.32C211.749 26.7467 211.429 25.86 211.429 24.66H214.329C214.329 25.1 214.403 25.4333 214.549 25.66C214.709 25.8733 214.996 25.98 215.409 25.98C216.156 25.98 216.529 25.54 216.529 24.66H219.469C219.469 25.86 219.143 26.7467 218.489 27.32C217.849 27.88 216.829 28.16 215.429 28.16Z" fill="#330099"/>
</svg>
