<svg width="183" height="36" viewBox="0 0 183 36" fill="none" xmlns="http://www.w3.org/2000/svg">
<path d="M10.3031 0.799999V12H7.72713V2.912H2.67113V12H0.0951251V0.799999H10.3031ZM16.9195 12.128C16.0128 12.128 15.1968 11.9413 14.4715 11.568C13.7568 11.184 13.1968 10.656 12.7915 9.984C12.3862 9.312 12.1835 8.54933 12.1835 7.696C12.1835 6.84267 12.3862 6.08 12.7915 5.408C13.1968 4.736 13.7568 4.21333 14.4715 3.84C15.1968 3.456 16.0128 3.264 16.9195 3.264C17.8262 3.264 18.6368 3.456 19.3515 3.84C20.0662 4.21333 20.6262 4.736 21.0315 5.408C21.4368 6.08 21.6395 6.84267 21.6395 7.696C21.6395 8.54933 21.4368 9.312 21.0315 9.984C20.6262 10.656 20.0662 11.184 19.3515 11.568C18.6368 11.9413 17.8262 12.128 16.9195 12.128ZM16.9195 10.08C17.5595 10.08 18.0822 9.86667 18.4875 9.44C18.9035 9.00267 19.1115 8.42133 19.1115 7.696C19.1115 6.97067 18.9035 6.39467 18.4875 5.968C18.0822 5.53067 17.5595 5.312 16.9195 5.312C16.2795 5.312 15.7515 5.53067 15.3355 5.968C14.9195 6.39467 14.7115 6.97067 14.7115 7.696C14.7115 8.42133 14.9195 9.00267 15.3355 9.44C15.7515 9.86667 16.2795 10.08 16.9195 10.08ZM31.7563 12V6.848L29.1803 11.168H28.1243L25.6123 6.832V12H23.3563V3.392H25.9643L28.7163 8.368L31.6443 3.392H33.9803L34.0123 12H31.7563ZM40.4351 12.128C39.5285 12.128 38.7125 11.9413 37.9871 11.568C37.2725 11.184 36.7125 10.656 36.3071 9.984C35.9018 9.312 35.6991 8.54933 35.6991 7.696C35.6991 6.84267 35.9018 6.08 36.3071 5.408C36.7125 4.736 37.2725 4.21333 37.9871 3.84C38.7125 3.456 39.5285 3.264 40.4351 3.264C41.3418 3.264 42.1525 3.456 42.8671 3.84C43.5818 4.21333 44.1418 4.736 44.5471 5.408C44.9525 6.08 45.1551 6.84267 45.1551 7.696C45.1551 8.54933 44.9525 9.312 44.5471 9.984C44.1418 10.656 43.5818 11.184 42.8671 11.568C42.1525 11.9413 41.3418 12.128 40.4351 12.128ZM40.4351 10.08C41.0751 10.08 41.5978 9.86667 42.0031 9.44C42.4191 9.00267 42.6271 8.42133 42.6271 7.696C42.6271 6.97067 42.4191 6.39467 42.0031 5.968C41.5978 5.53067 41.0751 5.312 40.4351 5.312C39.7951 5.312 39.2671 5.53067 38.8511 5.968C38.4351 6.39467 38.2271 6.97067 38.2271 7.696C38.2271 8.42133 38.4351 9.00267 38.8511 9.44C39.2671 9.86667 39.7951 10.08 40.4351 10.08ZM53.7679 5.44H49.3519V12H46.8719V3.392H53.7679V5.44ZM58.4346 3.264C59.768 3.264 60.792 3.584 61.5066 4.224C62.2213 4.85333 62.5786 5.808 62.5786 7.088V12H60.2426V10.928C59.7733 11.728 58.8986 12.128 57.6186 12.128C56.9573 12.128 56.3813 12.016 55.8906 11.792C55.4106 11.568 55.0426 11.2587 54.7866 10.864C54.5306 10.4693 54.4026 10.0213 54.4026 9.52C54.4026 8.72 54.7013 8.09067 55.2986 7.632C55.9066 7.17333 56.84 6.944 58.0986 6.944H60.0826C60.0826 6.4 59.9173 5.984 59.5866 5.696C59.256 5.39733 58.76 5.248 58.0986 5.248C57.64 5.248 57.1866 5.32267 56.7386 5.472C56.3013 5.61067 55.928 5.80267 55.6186 6.048L54.7226 4.304C55.192 3.97333 55.752 3.71733 56.4026 3.536C57.064 3.35467 57.7413 3.264 58.4346 3.264ZM58.2426 10.448C58.6693 10.448 59.048 10.352 59.3786 10.16C59.7093 9.95733 59.944 9.664 60.0826 9.28V8.4H58.3706C57.3466 8.4 56.8346 8.736 56.8346 9.408C56.8346 9.728 56.9573 9.984 57.2026 10.176C57.4586 10.3573 57.8053 10.448 58.2426 10.448ZM72.8909 3.264C73.7655 3.264 74.5495 3.456 75.2429 3.84C75.9362 4.21333 76.4802 4.736 76.8749 5.408C77.2695 6.08 77.4669 6.84267 77.4669 7.696C77.4669 8.54933 77.2695 9.312 76.8749 9.984C76.4802 10.656 75.9362 11.184 75.2429 11.568C74.5495 11.9413 73.7655 12.128 72.8909 12.128C72.1335 12.128 71.4402 11.9893 70.8109 11.712C70.1815 11.424 69.6589 11.024 69.2429 10.512C68.8269 9.98933 68.5495 9.392 68.4109 8.72H67.2269V12H64.7469V3.392H67.2269V6.56H68.4269C68.6722 5.55733 69.1949 4.75733 69.9949 4.16C70.7949 3.56267 71.7602 3.264 72.8909 3.264ZM72.8909 10.08C73.4989 10.08 74.0002 9.86667 74.3949 9.44C74.8002 9.00267 75.0029 8.42133 75.0029 7.696C75.0029 6.96 74.8002 6.37867 74.3949 5.952C74.0002 5.52533 73.4989 5.312 72.8909 5.312C72.2722 5.312 71.7602 5.52533 71.3549 5.952C70.9602 6.37867 70.7629 6.96 70.7629 7.696C70.7629 8.42133 70.9602 9.00267 71.3549 9.44C71.7602 9.86667 72.2722 10.08 72.8909 10.08ZM90.3073 7.504C91.3206 7.84533 91.8273 8.528 91.8273 9.552C91.8273 10.3307 91.5339 10.9333 90.9473 11.36C90.3606 11.7867 89.4859 12 88.3233 12H83.7313V3.392H88.1313C89.2086 3.392 90.0513 3.58933 90.6593 3.984C91.2673 4.368 91.5712 4.912 91.5712 5.616C91.5712 6.04267 91.4593 6.42133 91.2353 6.752C91.0219 7.072 90.7126 7.32267 90.3073 7.504ZM86.0193 6.928H87.9073C88.7819 6.928 89.2193 6.61867 89.2193 6C89.2193 5.392 88.7819 5.088 87.9073 5.088H86.0193V6.928ZM88.1153 10.304C89.0326 10.304 89.4913 9.98933 89.4913 9.36C89.4913 9.02933 89.3846 8.78933 89.1713 8.64C88.9579 8.48 88.6219 8.4 88.1633 8.4H86.0193V10.304H88.1153ZM97.7164 12.128C96.8097 12.128 95.9937 11.9413 95.2684 11.568C94.5537 11.184 93.9937 10.656 93.5884 9.984C93.183 9.312 92.9804 8.54933 92.9804 7.696C92.9804 6.84267 93.183 6.08 93.5884 5.408C93.9937 4.736 94.5537 4.21333 95.2684 3.84C95.9937 3.456 96.8097 3.264 97.7164 3.264C98.623 3.264 99.4337 3.456 100.148 3.84C100.863 4.21333 101.423 4.736 101.828 5.408C102.234 6.08 102.436 6.84267 102.436 7.696C102.436 8.54933 102.234 9.312 101.828 9.984C101.423 10.656 100.863 11.184 100.148 11.568C99.4337 11.9413 98.623 12.128 97.7164 12.128ZM97.7164 10.08C98.3564 10.08 98.879 9.86667 99.2844 9.44C99.7004 9.00267 99.9084 8.42133 99.9084 7.696C99.9084 6.97067 99.7004 6.39467 99.2844 5.968C98.879 5.53067 98.3564 5.312 97.7164 5.312C97.0764 5.312 96.5484 5.53067 96.1324 5.968C95.7164 6.39467 95.5084 6.97067 95.5084 7.696C95.5084 8.42133 95.7164 9.00267 96.1324 9.44C96.5484 9.86667 97.0764 10.08 97.7164 10.08ZM112.713 3.392V12H110.217V5.44H106.633V12H104.153V3.392H112.713ZM123.362 3.392V12H120.866V5.44H118.146L118.066 6.96C118.024 8.09067 117.917 9.02933 117.746 9.776C117.576 10.5227 117.298 11.1093 116.914 11.536C116.53 11.9627 115.997 12.176 115.314 12.176C114.952 12.176 114.52 12.112 114.018 11.984L114.146 9.936C114.317 9.95733 114.44 9.968 114.514 9.968C114.888 9.968 115.165 9.83467 115.346 9.568C115.538 9.29067 115.666 8.944 115.73 8.528C115.794 8.10133 115.842 7.54133 115.874 6.848L116.002 3.392H123.362ZM129.795 12.128C128.888 12.128 128.072 11.9413 127.347 11.568C126.632 11.184 126.072 10.656 125.667 9.984C125.261 9.312 125.059 8.54933 125.059 7.696C125.059 6.84267 125.261 6.08 125.667 5.408C126.072 4.736 126.632 4.21333 127.347 3.84C128.072 3.456 128.888 3.264 129.795 3.264C130.701 3.264 131.512 3.456 132.227 3.84C132.941 4.21333 133.501 4.736 133.907 5.408C134.312 6.08 134.515 6.84267 134.515 7.696C134.515 8.54933 134.312 9.312 133.907 9.984C133.501 10.656 132.941 11.184 132.227 11.568C131.512 11.9413 130.701 12.128 129.795 12.128ZM129.795 10.08C130.435 10.08 130.957 9.86667 131.363 9.44C131.779 9.00267 131.987 8.42133 131.987 7.696C131.987 6.97067 131.779 6.39467 131.363 5.968C130.957 5.53067 130.435 5.312 129.795 5.312C129.155 5.312 128.627 5.53067 128.211 5.968C127.795 6.39467 127.587 6.97067 127.587 7.696C127.587 8.42133 127.795 9.00267 128.211 9.44C128.627 9.86667 129.155 10.08 129.795 10.08ZM149.367 3.392V12H136.231V3.392H138.711V9.952H141.575V3.392H144.055V9.952H146.887V3.392H149.367ZM150.567 9.952V13.712H148.247V12H146.823V9.952H150.567ZM155.107 3.264C156.44 3.264 157.464 3.584 158.179 4.224C158.893 4.85333 159.251 5.808 159.251 7.088V12H156.915V10.928C156.445 11.728 155.571 12.128 154.291 12.128C153.629 12.128 153.053 12.016 152.562 11.792C152.083 11.568 151.715 11.2587 151.459 10.864C151.203 10.4693 151.075 10.0213 151.075 9.52C151.075 8.72 151.373 8.09067 151.971 7.632C152.579 7.17333 153.512 6.944 154.771 6.944H156.755C156.755 6.4 156.589 5.984 156.259 5.696C155.928 5.39733 155.432 5.248 154.771 5.248C154.312 5.248 153.859 5.32267 153.411 5.472C152.973 5.61067 152.6 5.80267 152.291 6.048L151.395 4.304C151.864 3.97333 152.424 3.71733 153.075 3.536C153.736 3.35467 154.413 3.264 155.107 3.264ZM154.915 10.448C155.341 10.448 155.72 10.352 156.051 10.16C156.381 9.95733 156.616 9.664 156.755 9.28V8.4H155.043C154.019 8.4 153.507 8.736 153.507 9.408C153.507 9.728 153.629 9.984 153.875 10.176C154.131 10.3573 154.477 10.448 154.915 10.448ZM168.651 5.44H165.739V12H163.259V5.44H160.347V3.392H168.651V5.44ZM174.637 6.144C175.757 6.15467 176.616 6.41067 177.213 6.912C177.811 7.40267 178.109 8.10133 178.109 9.008C178.109 9.95733 177.773 10.6987 177.101 11.232C176.44 11.7547 175.507 12.016 174.301 12.016L169.981 12V3.392H172.461V6.144H174.637ZM174.077 10.24C174.557 10.2507 174.925 10.1493 175.181 9.936C175.437 9.72267 175.565 9.40267 175.565 8.976C175.565 8.56 175.437 8.256 175.181 8.064C174.936 7.872 174.568 7.77067 174.077 7.76L172.461 7.744V10.24H174.077ZM17.3813 32V26.848L14.8053 31.168H13.7493L11.2373 26.832V32H8.98125V23.392H11.5893L14.3413 28.368L17.2693 23.392H19.6053L19.6373 32H17.3813ZM30.3961 27.728C30.3961 27.76 30.3801 27.984 30.3481 28.4H23.8361C23.9535 28.9333 24.2308 29.3547 24.6681 29.664C25.1055 29.9733 25.6495 30.128 26.3001 30.128C26.7481 30.128 27.1428 30.064 27.4841 29.936C27.8361 29.7973 28.1615 29.584 28.4601 29.296L29.7881 30.736C28.9775 31.664 27.7935 32.128 26.2361 32.128C25.2655 32.128 24.4068 31.9413 23.6601 31.568C22.9135 31.184 22.3375 30.656 21.9321 29.984C21.5268 29.312 21.3241 28.5493 21.3241 27.696C21.3241 26.8533 21.5215 26.096 21.9161 25.424C22.3215 24.7413 22.8708 24.2133 23.5641 23.84C24.2681 23.456 25.0521 23.264 25.9161 23.264C26.7588 23.264 27.5215 23.4453 28.2041 23.808C28.8868 24.1707 29.4201 24.6933 29.8041 25.376C30.1988 26.048 30.3961 26.832 30.3961 27.728ZM25.9321 25.152C25.3668 25.152 24.8921 25.312 24.5081 25.632C24.1241 25.952 23.8895 26.3893 23.8041 26.944H28.0441C27.9588 26.4 27.7241 25.968 27.3401 25.648C26.9561 25.3173 26.4868 25.152 25.9321 25.152ZM40.0534 23.392V32H37.5574V28.8C36.832 29.1627 36.032 29.344 35.1574 29.344C33.9947 29.344 33.1147 29.0827 32.5174 28.56C31.9307 28.0267 31.6374 27.2053 31.6374 26.096V23.392H34.1334V25.936C34.1334 26.4587 34.2667 26.8373 34.5334 27.072C34.8107 27.3067 35.2054 27.424 35.7174 27.424C36.368 27.424 36.9814 27.2853 37.5574 27.008V23.392H40.0534ZM49.682 25.44H46.77V32H44.29V25.44H41.378V23.392H49.682V25.44ZM55.5405 26.144C56.6605 26.1547 57.5085 26.4053 58.0845 26.896C58.6605 27.3867 58.9485 28.0907 58.9485 29.008C58.9485 29.968 58.6232 30.7093 57.9725 31.232C57.3218 31.7547 56.3992 32.016 55.2045 32.016L51.0125 32V23.392H53.4925V26.144H55.5405ZM59.8765 23.392H62.3565V32H59.8765V23.392ZM54.9805 30.24C55.4605 30.2507 55.8285 30.1493 56.0845 29.936C56.3405 29.7227 56.4685 29.4027 56.4685 28.976C56.4685 28.56 56.3405 28.256 56.0845 28.064C55.8392 27.872 55.4712 27.7707 54.9805 27.76L53.4925 27.744V30.24H54.9805ZM75.8698 27.504C76.8831 27.8453 77.3898 28.528 77.3898 29.552C77.3898 30.3307 77.0964 30.9333 76.5098 31.36C75.9231 31.7867 75.0484 32 73.8858 32H69.2938V23.392H73.6938C74.7711 23.392 75.6138 23.5893 76.2218 23.984C76.8298 24.368 77.1337 24.912 77.1337 25.616C77.1337 26.0427 77.0218 26.4213 76.7978 26.752C76.5844 27.072 76.2751 27.3227 75.8698 27.504ZM71.5818 26.928H73.4698C74.3444 26.928 74.7818 26.6187 74.7818 26C74.7818 25.392 74.3444 25.088 73.4698 25.088H71.5818V26.928ZM73.6778 30.304C74.5951 30.304 75.0538 29.9893 75.0538 29.36C75.0538 29.0293 74.9471 28.7893 74.7338 28.64C74.5204 28.48 74.1844 28.4 73.7258 28.4H71.5818V30.304H73.6778ZM88.8501 23.264C89.6501 23.264 90.3755 23.4507 91.0261 23.824C91.6875 24.1867 92.2048 24.704 92.5781 25.376C92.9515 26.0373 93.1381 26.8107 93.1381 27.696C93.1381 28.5813 92.9515 29.36 92.5781 30.032C92.2048 30.6933 91.6875 31.2107 91.0261 31.584C90.3755 31.9467 89.6501 32.128 88.8501 32.128C87.7515 32.128 86.8875 31.7813 86.2581 31.088V35.104H83.7621V23.392H86.1461V24.384C86.7648 23.6373 87.6661 23.264 88.8501 23.264ZM88.4181 30.08C89.0581 30.08 89.5808 29.8667 89.9861 29.44C90.4021 29.0027 90.6101 28.4213 90.6101 27.696C90.6101 26.9707 90.4021 26.3947 89.9861 25.968C89.5808 25.5307 89.0581 25.312 88.4181 25.312C87.7781 25.312 87.2501 25.5307 86.8341 25.968C86.4288 26.3947 86.2261 26.9707 86.2261 27.696C86.2261 28.4213 86.4288 29.0027 86.8341 29.44C87.2501 29.8667 87.7781 30.08 88.4181 30.08ZM103.256 27.728C103.256 27.76 103.24 27.984 103.208 28.4H96.6955C96.8128 28.9333 97.0902 29.3547 97.5275 29.664C97.9648 29.9733 98.5088 30.128 99.1595 30.128C99.6075 30.128 100.002 30.064 100.344 29.936C100.696 29.7973 101.021 29.584 101.32 29.296L102.648 30.736C101.837 31.664 100.653 32.128 99.0955 32.128C98.1248 32.128 97.2662 31.9413 96.5195 31.568C95.7728 31.184 95.1968 30.656 94.7915 29.984C94.3862 29.312 94.1835 28.5493 94.1835 27.696C94.1835 26.8533 94.3808 26.096 94.7755 25.424C95.1808 24.7413 95.7302 24.2133 96.4235 23.84C97.1275 23.456 97.9115 23.264 98.7755 23.264C99.6182 23.264 100.381 23.4453 101.064 23.808C101.746 24.1707 102.28 24.6933 102.664 25.376C103.058 26.048 103.256 26.832 103.256 27.728ZM98.7915 25.152C98.2262 25.152 97.7515 25.312 97.3675 25.632C96.9835 25.952 96.7488 26.3893 96.6635 26.944H100.904C100.818 26.4 100.584 25.968 100.2 25.648C99.8155 25.3173 99.3462 25.152 98.7915 25.152ZM108.278 23.264C109.612 23.264 110.636 23.584 111.35 24.224C112.065 24.8533 112.422 25.808 112.422 27.088V32H110.086V30.928C109.617 31.728 108.742 32.128 107.462 32.128C106.801 32.128 106.225 32.016 105.734 31.792C105.254 31.568 104.886 31.2587 104.63 30.864C104.374 30.4693 104.246 30.0213 104.246 29.52C104.246 28.72 104.545 28.0907 105.142 27.632C105.75 27.1733 106.684 26.944 107.942 26.944H109.926C109.926 26.4 109.761 25.984 109.43 25.696C109.1 25.3973 108.604 25.248 107.942 25.248C107.484 25.248 107.03 25.3227 106.582 25.472C106.145 25.6107 105.772 25.8027 105.462 26.048L104.566 24.304C105.036 23.9733 105.596 23.7173 106.246 23.536C106.908 23.3547 107.585 23.264 108.278 23.264ZM108.086 30.448C108.513 30.448 108.892 30.352 109.222 30.16C109.553 29.9573 109.788 29.664 109.926 29.28V28.4H108.214C107.19 28.4 106.678 28.736 106.678 29.408C106.678 29.728 106.801 29.984 107.046 30.176C107.302 30.3573 107.649 30.448 108.086 30.448ZM122.847 23.392V32H120.351V25.44H117.631L117.551 26.96C117.508 28.0907 117.401 29.0293 117.231 29.776C117.06 30.5227 116.783 31.1093 116.399 31.536C116.015 31.9627 115.481 32.176 114.799 32.176C114.436 32.176 114.004 32.112 113.503 31.984L113.631 29.936C113.801 29.9573 113.924 29.968 113.999 29.968C114.372 29.968 114.649 29.8347 114.831 29.568C115.023 29.2907 115.151 28.944 115.215 28.528C115.279 28.1013 115.327 27.5413 115.359 26.848L115.487 23.392H122.847ZM129.903 26.144C131.023 26.1547 131.882 26.4107 132.479 26.912C133.076 27.4027 133.375 28.1013 133.375 29.008C133.375 29.9573 133.039 30.6987 132.367 31.232C131.706 31.7547 130.772 32.016 129.567 32.016L125.247 32V23.392H127.727V26.144H129.903ZM129.343 30.24C129.823 30.2507 130.191 30.1493 130.447 29.936C130.703 29.7227 130.831 29.4027 130.831 28.976C130.831 28.56 130.703 28.256 130.447 28.064C130.202 27.872 129.834 27.7707 129.343 27.76L127.727 27.744V30.24H129.343ZM134.934 23.392H137.414V26.752H141.158V23.392H143.654V32H141.158V28.784H137.414V32H134.934V23.392ZM150.076 32.128C149.169 32.128 148.353 31.9413 147.628 31.568C146.913 31.184 146.353 30.656 145.948 29.984C145.542 29.312 145.34 28.5493 145.34 27.696C145.34 26.8427 145.542 26.08 145.948 25.408C146.353 24.736 146.913 24.2133 147.628 23.84C148.353 23.456 149.169 23.264 150.076 23.264C150.982 23.264 151.793 23.456 152.508 23.84C153.222 24.2133 153.782 24.736 154.188 25.408C154.593 26.08 154.796 26.8427 154.796 27.696C154.796 28.5493 154.593 29.312 154.188 29.984C153.782 30.656 153.222 31.184 152.508 31.568C151.793 31.9413 150.982 32.128 150.076 32.128ZM150.076 30.08C150.716 30.08 151.238 29.8667 151.644 29.44C152.06 29.0027 152.268 28.4213 152.268 27.696C152.268 26.9707 152.06 26.3947 151.644 25.968C151.238 25.5307 150.716 25.312 150.076 25.312C149.436 25.312 148.908 25.5307 148.492 25.968C148.076 26.3947 147.868 26.9707 147.868 27.696C147.868 28.4213 148.076 29.0027 148.492 29.44C148.908 29.8667 149.436 30.08 150.076 30.08ZM160.609 32.128C159.691 32.128 158.865 31.9413 158.129 31.568C157.403 31.184 156.833 30.656 156.417 29.984C156.011 29.312 155.809 28.5493 155.809 27.696C155.809 26.8427 156.011 26.08 156.417 25.408C156.833 24.736 157.403 24.2133 158.129 23.84C158.865 23.456 159.691 23.264 160.609 23.264C161.515 23.264 162.305 23.456 162.977 23.84C163.659 24.2133 164.155 24.752 164.465 25.456L162.529 26.496C162.081 25.7067 161.435 25.312 160.593 25.312C159.942 25.312 159.403 25.5253 158.977 25.952C158.55 26.3787 158.337 26.96 158.337 27.696C158.337 28.432 158.55 29.0133 158.977 29.44C159.403 29.8667 159.942 30.08 160.593 30.08C161.446 30.08 162.091 29.6853 162.529 28.896L164.465 29.952C164.155 30.6347 163.659 31.168 162.977 31.552C162.305 31.936 161.515 32.128 160.609 32.128ZM173.182 25.44H170.27V32H167.79V25.44H164.878V23.392H173.182V25.44ZM179.169 26.144C180.289 26.1547 181.147 26.4107 181.745 26.912C182.342 27.4027 182.641 28.1013 182.641 29.008C182.641 29.9573 182.305 30.6987 181.633 31.232C180.971 31.7547 180.038 32.016 178.833 32.016L174.513 32V23.392H176.993V26.144H179.169ZM178.609 30.24C179.089 30.2507 179.457 30.1493 179.713 29.936C179.969 29.7227 180.097 29.4027 180.097 28.976C180.097 28.56 179.969 28.256 179.713 28.064C179.467 27.872 179.099 27.7707 178.609 27.76L176.993 27.744V30.24H178.609Z" fill="white"/>
</svg>
